<svg width="40" height="40" viewBox="0 0 40 40" fill="none" xmlns="http://www.w3.org/2000/svg">
<g clip-path="url(#clip0_555_34061)">
<mask id="mask0_555_34061" style="mask-type:luminance" maskUnits="userSpaceOnUse" x="0" y="0" width="40" height="40">
<path d="M40 0H0V40H40V0Z" fill="white"/>
</mask>
<g mask="url(#mask0_555_34061)">
<path d="M30.9002 6.95109L21.7336 3.51774C20.7836 3.16775 19.2336 3.16775 18.2836 3.51774L9.11699 6.95109C7.35033 7.61775 5.91699 9.68442 5.91699 11.5678V25.0677C5.91699 26.4177 6.80033 28.201 7.88366 29.001L17.0502 35.851C18.6669 37.0677 21.3169 37.0677 22.9336 35.851L32.1002 29.001C33.1836 28.1844 34.0671 26.4177 34.0671 25.0677V11.5678C34.0837 9.68442 32.6502 7.61775 30.9002 6.95109ZM21.2502 21.451V25.8344C21.2502 26.5177 20.6836 27.0844 20.0002 27.0844C19.3169 27.0844 18.7502 26.5177 18.7502 25.8344V21.451C17.0669 20.9177 15.8337 19.351 15.8337 17.501C15.8337 15.2011 17.7002 13.3344 20.0002 13.3344C22.3002 13.3344 24.1669 15.2011 24.1669 17.501C24.1669 19.3677 22.9336 20.9177 21.2502 21.451Z" fill="#BF934C"/>
</g>
</g>
<defs>
<clipPath id="clip0_555_34061">
<rect width="40" height="40" fill="white"/>
</clipPath>
</defs>
</svg>
