<svg width="41" height="40" viewBox="0 0 41 40" fill="none" xmlns="http://www.w3.org/2000/svg">
<g clip-path="url(#clip0_555_34066)">
<mask id="mask0_555_34066" style="mask-type:luminance" maskUnits="userSpaceOnUse" x="0" y="0" width="41" height="40">
<path d="M40.25 0H0.25V40H40.25V0Z" fill="white"/>
</mask>
<g mask="url(#mask0_555_34066)">
<path d="M34.4835 31.7321C34.2335 31.9821 33.9168 32.0988 33.6001 32.0988C33.2835 32.0988 32.9668 31.9821 32.7168 31.7321L24.4668 23.4821L25.3501 22.5988L26.2335 21.7155L34.4835 29.9655C34.9668 30.4488 34.9668 31.2488 34.4835 31.7321Z" fill="#BF934C"/>
<path d="M11.0329 15.4668L20.6996 25.1335C21.3496 25.7835 21.3496 26.8335 20.6996 27.4835L19.1996 29.0001C17.8496 30.3335 15.7163 30.3335 14.3829 29.0001L7.14961 21.7668C5.83294 20.4501 5.83294 18.3001 7.14961 16.9668L8.66628 15.4501C9.31628 14.8168 10.3829 14.8168 11.0329 15.4668Z" fill="#BF934C"/>
<path d="M31.2329 16.9828L24.8829 23.3162C24.2163 23.9828 23.1496 23.9828 22.4829 23.3162L12.8496 13.6828C12.1829 13.0161 12.1829 11.9495 12.8496 11.2828L19.1996 4.93281C20.5163 3.61615 22.6663 3.61615 23.9996 4.93281L31.2329 12.1661C32.5496 13.4995 32.5496 15.6328 31.2329 16.9828Z" fill="#BF934C"/>
<path d="M13.583 36.25H3.58301C2.89967 36.25 2.33301 35.6833 2.33301 35C2.33301 34.3167 2.89967 33.75 3.58301 33.75H13.583C14.2663 33.75 14.833 34.3167 14.833 35C14.833 35.6833 14.2663 36.25 13.583 36.25Z" fill="#BF934C"/>
</g>
</g>
<defs>
<clipPath id="clip0_555_34066">
<rect width="40" height="40" fill="white" transform="translate(0.25)"/>
</clipPath>
</defs>
</svg>
