<svg width="41" height="40" viewBox="0 0 41 40" fill="none" xmlns="http://www.w3.org/2000/svg">
<g clip-path="url(#clip0_555_34071)">
<mask id="mask0_555_34071" style="mask-type:luminance" maskUnits="userSpaceOnUse" x="0" y="0" width="41" height="40">
<path d="M40.5 0H0.5V40H40.5V0Z" fill="white"/>
</mask>
<g mask="url(#mask0_555_34071)">
<path d="M30.5 3.33337H10.5C7.73333 3.33337 5.5 5.55004 5.5 8.28337V26.4667C5.5 29.2 7.73333 31.4334 10.5 31.4334H11.7667C13.0833 31.4334 14.3667 31.95 15.3 32.8834L18.15 35.7C19.45 36.9834 21.55 36.9834 22.85 35.7L25.7 32.8834C26.6333 31.95 27.9167 31.4334 29.2333 31.4334H30.5C33.2667 31.4334 35.5 29.2 35.5 26.4667V8.28337C35.5 5.55004 33.2667 3.33337 30.5 3.33337ZM20.5 9.25004C22.3 9.25004 23.75 10.7167 23.75 12.5C23.75 14.2667 22.35 15.6834 20.6167 15.75C20.55 15.75 20.45 15.75 20.3667 15.75C18.6167 15.6834 17.2333 14.2667 17.2333 12.5C17.25 10.7167 18.7 9.25004 20.5 9.25004ZM25.0833 24.4834C22.5667 26.1667 18.4333 26.1667 15.9167 24.4834C13.7 23.0167 13.7 20.5834 15.9167 19.1C18.45 17.4167 22.5833 17.4167 25.0833 19.1C27.3 20.5834 27.3 23 25.0833 24.4834Z" fill="#BF934C"/>
</g>
</g>
<defs>
<clipPath id="clip0_555_34071">
<rect width="40" height="40" fill="white" transform="translate(0.5)"/>
</clipPath>
</defs>
</svg>
