<svg width="41" height="40" viewBox="0 0 41 40" fill="none" xmlns="http://www.w3.org/2000/svg">
<g clip-path="url(#clip0_555_34076)">
<mask id="mask0_555_34076" style="mask-type:luminance" maskUnits="userSpaceOnUse" x="0" y="0" width="41" height="40">
<path d="M40.75 0H0.75V40H40.75V0Z" fill="white"/>
</mask>
<g mask="url(#mask0_555_34076)">
<path d="M36.1663 15.2495C32.3163 9.19952 26.683 5.71619 20.7497 5.71619C17.783 5.71619 14.8997 6.58285 12.2663 8.19952C9.63301 9.83285 7.26634 12.2162 5.33301 15.2495C3.66634 17.8662 3.66634 22.1162 5.33301 24.7329C9.18301 30.7995 14.8163 34.2662 20.7497 34.2662C23.7163 34.2662 26.5997 33.3995 29.233 31.7829C31.8663 30.1495 34.233 27.7662 36.1663 24.7329C37.833 22.1329 37.833 17.8662 36.1663 15.2495ZM20.7497 26.7329C17.0163 26.7329 14.0163 23.7162 14.0163 19.9995C14.0163 16.2829 17.0163 13.2662 20.7497 13.2662C24.483 13.2662 27.483 16.2829 27.483 19.9995C27.483 23.7162 24.483 26.7329 20.7497 26.7329Z" fill="#BF934C"/>
<path d="M20.749 15.2344C18.1324 15.2344 15.999 17.3677 15.999 20.001C15.999 22.6177 18.1324 24.751 20.749 24.751C23.3657 24.751 25.5157 22.6177 25.5157 20.001C25.5157 17.3843 23.3657 15.2344 20.749 15.2344Z" fill="#BF934C"/>
</g>
</g>
<defs>
<clipPath id="clip0_555_34076">
<rect width="40" height="40" fill="white" transform="translate(0.75)"/>
</clipPath>
</defs>
</svg>
