<svg width="151" height="45" viewBox="0 0 151 45" fill="none" xmlns="http://www.w3.org/2000/svg">
<path fill-rule="evenodd" clip-rule="evenodd" d="M37.2701 23.6242H26.4563L22.4918 8.85255L37.2701 23.6242ZM7.72298 23.6242H18.5383L22.5029 8.85255L7.72298 23.6242ZM27.1081 31.5364L22.4965 36.1459L17.8834 31.5364L22.4949 26.9255L27.1081 31.5364ZM13.4589 35.9619L22.4981 45L31.5373 35.9619L27.1113 31.5364H35.9618L45.001 22.4984L22.4997 0L2.21223 20.2849L0 22.5047L9.0392 31.5428H17.8834L13.4589 35.9619Z" fill="#3A3458"/>
<path d="M59.8488 20.2595C60.1511 20.2595 60.4451 20.2265 60.7308 20.1606C61.0221 20.0947 61.2749 19.9573 61.4892 19.7485C61.709 19.5397 61.8876 19.2402 62.025 18.8501C62.1624 18.4545 62.231 17.9243 62.231 17.2594C62.231 16.6056 62.1651 16.0808 62.0332 15.6852C61.9013 15.2841 61.7282 14.9764 61.5139 14.7621C61.3051 14.5478 61.0523 14.4077 60.7556 14.3418C60.4643 14.2703 60.1621 14.2346 59.8488 14.2346H59.074V20.2595H59.8488ZM52.8588 23.3173V20.2595C53.3423 20.2595 53.6885 20.1963 53.8974 20.0699C54.1062 19.9381 54.2106 19.6935 54.2106 19.3364V15.166C54.2106 14.8033 54.1062 14.5588 53.8974 14.4324C53.6885 14.3006 53.3423 14.2346 52.8588 14.2346V11.1769H61.6046C62.3904 11.1769 63.1515 11.2813 63.8879 11.4901C64.6243 11.6988 65.2782 12.0395 65.8497 12.5121C66.4267 12.9846 66.8883 13.611 67.2346 14.3912C67.5863 15.166 67.7621 16.122 67.7621 17.2594C67.7621 18.3968 67.589 19.3529 67.2428 20.1276C66.9021 20.9024 66.435 21.526 65.8415 21.9986C65.2535 22.4711 64.5638 22.8118 63.7725 23.0206C62.9812 23.2294 62.1404 23.3337 61.2501 23.3337L52.8588 23.3173Z" fill="#3A3458"/>
<path d="M68.537 23.3173V20.2595C69.0205 20.2595 69.3667 20.1963 69.5756 20.0699C69.7844 19.9381 69.8888 19.6935 69.8888 19.3364V15.166C69.8888 14.8033 69.7844 14.5588 69.5756 14.4324C69.3667 14.3006 69.0205 14.2346 68.537 14.2346V11.1769H76.0958V14.2346C75.6122 14.2346 75.266 14.3006 75.0572 14.4324C74.8538 14.5588 74.7522 14.8033 74.7522 15.166V19.3364C74.7522 19.6935 74.8538 19.9381 75.0572 20.0699C75.266 20.1963 75.6122 20.2595 76.0958 20.2595V23.3173H68.537Z" fill="#3A3458"/>
<path d="M83.3496 19.0809H80.7448L80.6294 19.4353C80.5415 19.6716 80.547 19.8694 80.6459 20.0287C80.7448 20.1826 80.9537 20.2595 81.2724 20.2595H81.7423V23.3173H76.6069V20.2595H76.9448C77.3405 20.2595 77.6043 20.1826 77.7361 20.0287C77.8735 19.8694 78.0054 19.6386 78.1318 19.3364L79.8216 15.166C79.9425 14.8473 79.9618 14.6138 79.8793 14.4654C79.8024 14.3115 79.5634 14.2346 79.1622 14.2346H78.9891V11.1769H87.4629V14.2346H87.298C86.8914 14.2346 86.6468 14.3143 86.5644 14.4736C86.4875 14.633 86.5122 14.8638 86.6386 15.166L88.3284 19.3364C88.3944 19.4902 88.4521 19.6249 88.5015 19.7403C88.5565 19.8501 88.6224 19.9463 88.6994 20.0287C88.7763 20.1056 88.878 20.1633 89.0043 20.2018C89.1362 20.2403 89.3038 20.2595 89.5072 20.2595H89.8451V23.3173H82.3522V20.2595H82.8056C83.1188 20.2595 83.3277 20.1826 83.4321 20.0287C83.542 19.8694 83.553 19.6716 83.465 19.4353L83.3496 19.0809ZM81.1652 17.7952H82.921L82.0967 15.2649H82.0308L81.1652 17.7952Z" fill="#3A3458"/>
<path d="M105.119 11.1769V14.2346C104.636 14.2346 104.317 14.3143 104.163 14.4736C104.015 14.633 103.941 14.8638 103.941 15.166V23.3173H98.9866L94.6838 16.5836V19.4353C94.6838 19.7925 94.7882 20.0205 94.997 20.1194C95.2058 20.2128 95.552 20.2595 96.0356 20.2595V23.3173H90.3644V20.2595C90.848 20.2595 91.1942 20.1963 91.4031 20.0699C91.6119 19.9381 91.7163 19.6935 91.7163 19.3364V15.166C91.7163 14.8033 91.6119 14.5588 91.4031 14.4324C91.1942 14.3006 90.848 14.2346 90.3644 14.2346V11.1769H96.8434L100.965 17.6303V15.166C100.965 14.8033 100.888 14.5588 100.734 14.4324C100.586 14.3006 100.27 14.2346 99.7862 14.2346V11.1769H105.119Z" fill="#3A3458"/>
<path d="M105.713 17.2594C105.713 16.199 105.886 15.2704 106.232 14.4736C106.584 13.6714 107.079 13.0011 107.716 12.4626C108.353 11.9241 109.109 11.5203 109.983 11.251C110.862 10.9818 111.832 10.8472 112.893 10.8472C113.948 10.8472 114.915 10.9818 115.794 11.251C116.673 11.5203 117.429 11.9241 118.061 12.4626C118.698 13.0011 119.19 13.6714 119.536 14.4736C119.888 15.2704 120.064 16.199 120.064 17.2594C120.064 18.3144 119.888 19.243 119.536 20.0452C119.19 20.8419 118.698 21.5123 118.061 22.0562C117.429 22.5947 116.673 22.9986 115.794 23.2678C114.915 23.5371 113.948 23.6717 112.893 23.6717C111.832 23.6717 110.862 23.5371 109.983 23.2678C109.109 22.9986 108.353 22.5947 107.716 22.0562C107.079 21.5123 106.584 20.8419 106.232 20.0452C105.886 19.243 105.713 18.3144 105.713 17.2594ZM111.252 17.2594C111.252 17.9243 111.277 18.482 111.326 18.9325C111.376 19.3776 111.461 19.7403 111.582 20.0205C111.708 20.2952 111.876 20.4958 112.085 20.6221C112.294 20.743 112.563 20.8035 112.893 20.8035C113.206 20.8035 113.47 20.743 113.684 20.6221C113.898 20.4958 114.066 20.2952 114.187 20.0205C114.313 19.7403 114.401 19.3776 114.451 18.9325C114.5 18.482 114.525 17.9243 114.525 17.2594C114.525 16.6056 114.5 16.0506 114.451 15.5945C114.401 15.1385 114.313 14.7731 114.187 14.4984C114.066 14.2236 113.898 14.0258 113.684 13.9049C113.47 13.7786 113.206 13.7154 112.893 13.7154C112.563 13.7154 112.294 13.7786 112.085 13.9049C111.876 14.0258 111.708 14.2236 111.582 14.4984C111.461 14.7731 111.376 15.1385 111.326 15.5945C111.277 16.0506 111.252 16.6056 111.252 17.2594Z" fill="#3A3458"/>
<path d="M135.586 11.1769V14.2346C135.102 14.2346 134.783 14.3143 134.629 14.4736C134.481 14.633 134.407 14.8638 134.407 15.166V23.3173H129.453L125.15 16.5836V19.4353C125.15 19.7925 125.254 20.0205 125.463 20.1194C125.672 20.2128 126.018 20.2595 126.502 20.2595V23.3173H120.831V20.2595C121.314 20.2595 121.66 20.1963 121.869 20.0699C122.078 19.9381 122.182 19.6935 122.182 19.3364V15.166C122.182 14.8033 122.078 14.5588 121.869 14.4324C121.66 14.3006 121.314 14.2346 120.831 14.2346V11.1769H127.31L131.431 17.6303V15.166C131.431 14.8033 131.354 14.5588 131.2 14.4324C131.052 14.3006 130.736 14.2346 130.252 14.2346V11.1769H135.586Z" fill="#3A3458"/>
<path d="M143.087 20.2595C143.389 20.2595 143.683 20.2265 143.969 20.1606C144.26 20.0947 144.513 19.9573 144.727 19.7485C144.947 19.5397 145.125 19.2402 145.263 18.8501C145.4 18.4545 145.469 17.9243 145.469 17.2594C145.469 16.6056 145.403 16.0808 145.271 15.6852C145.139 15.2841 144.966 14.9764 144.752 14.7621C144.543 14.5478 144.29 14.4077 143.993 14.3418C143.702 14.2703 143.4 14.2346 143.087 14.2346H142.312V20.2595H143.087ZM136.097 23.3173V20.2595C136.58 20.2595 136.926 20.1963 137.135 20.0699C137.344 19.9381 137.448 19.6935 137.448 19.3364V15.166C137.448 14.8033 137.344 14.5588 137.135 14.4324C136.926 14.3006 136.58 14.2346 136.097 14.2346V11.1769H144.842C145.628 11.1769 146.389 11.2813 147.126 11.4901C147.862 11.6988 148.516 12.0395 149.088 12.5121C149.665 12.9846 150.126 13.611 150.472 14.3912C150.824 15.166 151 16.122 151 17.2594C151 18.3968 150.827 19.3529 150.481 20.1276C150.14 20.9024 149.673 21.526 149.079 21.9986C148.491 22.4711 147.802 22.8118 147.01 23.0206C146.219 23.2294 145.378 23.3337 144.488 23.3337L136.097 23.3173Z" fill="#3A3458"/>
<path d="M64.6957 41.6519V38.5942C65.1793 38.5942 65.4953 38.531 65.6437 38.4046C65.7975 38.2727 65.8745 38.0282 65.8745 37.6711V32.9402L63.0554 41.6519H59.8818L57.0132 33.4017V37.77C57.0132 37.9513 57.0297 38.0969 57.0627 38.2068C57.0957 38.3112 57.1534 38.3936 57.2358 38.4541C57.3237 38.5145 57.4446 38.553 57.5985 38.5694C57.7578 38.5859 57.9557 38.5942 58.192 38.5942V41.6519H52.8588V38.5942C53.3423 38.5942 53.6885 38.531 53.8974 38.4046C54.1062 38.2727 54.2106 38.0282 54.2106 37.6711V33.5006C54.2106 33.138 54.1062 32.8935 53.8974 32.7671C53.6885 32.6352 53.3423 32.5693 52.8588 32.5693V29.5115H60.7061L62.602 35.2067L64.2506 29.5115H71.999V32.5693C71.5154 32.5693 71.1692 32.6352 70.9604 32.7671C70.7571 32.8935 70.6554 33.138 70.6554 33.5006V37.6711C70.6554 38.0282 70.7571 38.2727 70.9604 38.4046C71.1692 38.531 71.5154 38.5942 71.999 38.5942V41.6519H64.6957Z" fill="#3A3458"/>
<path d="M72.7574 35.5941C72.7574 34.5336 72.9305 33.605 73.2767 32.8083C73.6284 32.0061 74.123 31.3357 74.7604 30.7973C75.3979 30.2588 76.1535 29.8549 77.0272 29.5857C77.9065 29.3165 78.8764 29.1818 79.937 29.1818C80.9921 29.1818 81.9593 29.3165 82.8386 29.5857C83.7178 29.8549 84.4734 30.2588 85.1054 30.7973C85.7429 31.3357 86.2347 32.0061 86.5809 32.8083C86.9326 33.605 87.1084 34.5336 87.1084 35.5941C87.1084 36.6491 86.9326 37.5777 86.5809 38.3799C86.2347 39.1766 85.7429 39.8469 85.1054 40.3909C84.4734 40.9294 83.7178 41.3332 82.8386 41.6025C81.9593 41.8717 80.9921 42.0063 79.937 42.0063C78.8764 42.0063 77.9065 41.8717 77.0272 41.6025C76.1535 41.3332 75.3979 40.9294 74.7604 40.3909C74.123 39.8469 73.6284 39.1766 73.2767 38.3799C72.9305 37.5777 72.7574 36.6491 72.7574 35.5941ZM78.2967 35.5941C78.2967 36.2589 78.3214 36.8167 78.3709 37.2672C78.4203 37.7123 78.5055 38.0749 78.6264 38.3552C78.7528 38.6299 78.9204 38.8304 79.1292 38.9568C79.338 39.0777 79.6073 39.1381 79.937 39.1381C80.2503 39.1381 80.514 39.0777 80.7284 38.9568C80.9427 38.8304 81.1103 38.6299 81.2312 38.3552C81.3576 38.0749 81.4455 37.7123 81.495 37.2672C81.5444 36.8167 81.5691 36.2589 81.5691 35.5941C81.5691 34.9402 81.5444 34.3853 81.495 33.9292C81.4455 33.4732 81.3576 33.1078 81.2312 32.833C81.1103 32.5583 80.9427 32.3605 80.7284 32.2396C80.514 32.1132 80.2503 32.0501 79.937 32.0501C79.6073 32.0501 79.338 32.1132 79.1292 32.2396C78.9204 32.3605 78.7528 32.5583 78.6264 32.833C78.5055 33.1078 78.4203 33.4732 78.3709 33.9292C78.3214 34.3853 78.2967 34.9402 78.2967 35.5941Z" fill="#3A3458"/>
<path d="M102.63 29.5115V32.5693C102.146 32.5693 101.828 32.649 101.674 32.8083C101.525 32.9677 101.451 33.1984 101.451 33.5006V41.6519H96.4972L92.1944 34.9183V37.77C92.1944 38.1271 92.2988 38.3551 92.5076 38.4541C92.7164 38.5475 93.0626 38.5942 93.5462 38.5942V41.6519H87.8751V38.5942C88.3586 38.5942 88.7048 38.531 88.9137 38.4046C89.1225 38.2727 89.2269 38.0282 89.2269 37.6711V33.5006C89.2269 33.138 89.1225 32.8935 88.9137 32.7671C88.7048 32.6352 88.3586 32.5693 87.8751 32.5693V29.5115H94.354L98.4756 35.965V33.5006C98.4756 33.138 98.3986 32.8935 98.2448 32.7671C98.0964 32.6352 97.7804 32.5693 97.2968 32.5693V29.5115H102.63Z" fill="#3A3458"/>
<path d="M110.131 38.5942C110.433 38.5942 110.727 38.5612 111.013 38.4953C111.304 38.4293 111.557 38.292 111.772 38.0832C111.991 37.8744 112.17 37.5749 112.307 37.1848C112.445 36.7892 112.513 36.2589 112.513 35.5941C112.513 34.9402 112.447 34.4155 112.316 34.0199C112.184 33.6188 112.011 33.3111 111.796 33.0968C111.587 32.8825 111.335 32.7424 111.038 32.6764C110.747 32.605 110.444 32.5693 110.131 32.5693H109.356V38.5942H110.131ZM103.141 41.6519V38.5942C103.625 38.5942 103.971 38.531 104.18 38.4046C104.389 38.2727 104.493 38.0282 104.493 37.6711V33.5006C104.493 33.138 104.389 32.8935 104.18 32.7671C103.971 32.6352 103.625 32.5693 103.141 32.5693V29.5115H111.887C112.673 29.5115 113.434 29.6159 114.17 29.8247C114.907 30.0335 115.561 30.3742 116.132 30.8467C116.709 31.3193 117.171 31.9457 117.517 32.7259C117.869 33.5006 118.044 34.4567 118.044 35.5941C118.044 36.7315 117.871 37.6876 117.525 38.4623C117.184 39.237 116.717 39.8607 116.124 40.3332C115.536 40.8058 114.846 41.1464 114.055 41.3552C113.264 41.564 112.423 41.6684 111.532 41.6684L103.141 41.6519Z" fill="#3A3458"/>
</svg>
