<svg width="109" height="45" viewBox="0 0 109 45" fill="none" xmlns="http://www.w3.org/2000/svg">
<path fill-rule="evenodd" clip-rule="evenodd" d="M28.4015 27.7818L11.2241 45L28.4015 36.3909L45.5809 45L28.4015 27.7818ZM28.4015 0L0 45L28.4015 16.5303L56.8011 45L28.4015 0Z" fill="#3A3458"/>
<path d="M78.8444 11.7363C78.4773 12.675 78.1103 13.5376 77.7433 14.324C77.3889 15.0978 77.2117 15.5228 77.2117 15.5989C77.2117 15.6623 77.2307 15.694 77.2686 15.694C77.3699 15.694 77.4775 15.6306 77.5914 15.5038C77.7053 15.3642 78.3824 14.6158 79.6228 13.2585C82.5211 10.0872 84.4766 8.31124 85.4891 7.93068C85.8182 7.79115 86.0776 7.72138 86.2675 7.72138C86.4573 7.72138 86.6472 7.79115 86.837 7.93068C87.0395 8.05753 87.1408 8.18439 87.1408 8.31124C87.1408 8.42541 87.0838 8.53323 86.9699 8.63471L86.6472 8.88207C84.5968 10.4677 82.5338 12.3769 80.4581 14.6095C80.1164 14.99 79.6544 15.4974 79.0722 16.1317C78.5027 16.7659 78.0407 17.2797 77.6863 17.6729C77.3319 18.0662 76.9079 18.5228 76.4143 19.0429C75.9207 19.563 75.503 19.9817 75.1613 20.2988C74.8322 20.6032 74.4842 20.9077 74.1171 21.2121C73.4337 21.7956 72.8768 22.0874 72.4465 22.0874C72.0288 22.0874 71.5985 21.7893 71.1555 21.1931C70.7125 20.5842 70.491 20.0895 70.491 19.7089C70.491 19.3284 70.8581 18.3579 71.5921 16.7977C72.3262 15.2247 73.0287 14.1084 73.6995 13.4488C73.864 13.2838 73.9463 13.157 73.9463 13.0682C73.9463 12.9667 73.8893 12.916 73.7754 12.916C73.6742 12.916 73.5729 12.9794 73.4716 13.1063C73.3704 13.2204 73.0856 13.5502 72.6173 14.0957C72.1617 14.6285 71.763 15.0915 71.4213 15.4847C71.0795 15.8653 70.6302 16.3664 70.0733 16.9879C69.5291 17.5968 69.0292 18.1169 68.5735 18.5482C68.1306 18.9795 67.6686 19.4108 67.1876 19.8421C66.2004 20.7301 65.441 21.1741 64.9094 21.1741C64.4665 21.1487 64.245 20.8316 64.245 20.2227C64.245 19.6138 64.4918 18.7448 64.9854 17.6159C65.479 16.4869 65.9346 15.9224 66.3523 15.9224C66.6307 15.9224 66.77 16.0429 66.77 16.2839C66.77 16.4742 66.5864 16.9372 66.2194 17.6729C65.8397 18.4087 65.6499 18.8273 65.6499 18.9288C65.6499 19.0176 65.6752 19.062 65.7258 19.062C65.8397 19.062 66.2764 18.7131 67.0358 18.0154C67.7952 17.3051 68.5229 16.5947 69.219 15.8843L70.2822 14.8378C71.2188 13.9625 72.6996 12.4022 74.7247 10.1569C75.3322 9.48462 75.9523 8.88842 76.5852 8.36832C77.218 7.84823 77.7306 7.58818 78.123 7.58818C78.5153 7.58818 78.8254 7.84189 79.0532 8.3493C79.281 8.8567 79.3949 9.31337 79.3949 9.7193C79.3949 10.1252 79.2114 10.7975 78.8444 11.7363Z" fill="#3A3458"/>
<path d="M77.2861 22.0684C77.0963 21.8908 77.0014 21.6624 77.0014 21.3834C77.0014 20.4954 77.5266 19.4869 78.5771 18.3579C79.6403 17.229 80.6275 16.582 81.5388 16.4171C82.1083 16.4171 82.3931 16.7533 82.3931 17.4256C82.3931 17.6412 82.1083 18.1486 81.5388 18.9478C80.9692 19.747 80.3174 20.5144 79.5833 21.2502C78.8492 21.9859 78.3303 22.3538 78.0265 22.3538C77.7228 22.3538 77.476 22.2586 77.2861 22.0684ZM82.7348 15.8082C83.3423 15.7448 83.8423 15.4847 84.2346 15.0281C84.627 14.5587 84.8231 14.1591 84.8231 13.8293C84.8231 13.3092 84.5637 13.0492 84.0448 13.0492C83.6904 13.0492 83.2727 13.2077 82.7918 13.5249C82.3108 13.842 82.0387 14.305 81.9754 14.9139L81.9944 15.1232C82.0197 15.2754 82.0956 15.4277 82.2222 15.5799C82.3488 15.7321 82.5196 15.8082 82.7348 15.8082Z" fill="#3A3458"/>
<path d="M82.764 14.1908C82.764 13.9879 83.3083 13.8039 84.3967 13.639C85.4852 13.4741 86.6496 13.36 87.89 13.2965C88.9278 12.3578 89.8644 11.5587 90.6997 10.899L91.1174 10.5565C91.3072 10.5565 91.4022 10.6961 91.4022 10.9751L91.4401 11.9075C91.4022 12.047 91.1364 12.4847 90.6428 13.2204H91.573C92.9779 13.2204 93.7879 13.36 94.0031 13.639C94.2309 13.9054 94.3448 14.1211 94.3448 14.286C94.3448 14.5016 94.1297 14.6158 93.6993 14.6285C93.269 14.6412 91.9211 14.6475 89.6556 14.6475C87.8457 16.5122 86.4281 18.1677 85.4029 19.6138C85.0106 20.1466 84.6688 20.6223 84.3777 21.0409C84.0866 21.4595 83.8588 21.7512 83.6943 21.9161C83.5424 22.0937 83.3969 22.1825 83.2576 22.1825C82.84 22.1825 82.4856 22.043 82.1945 21.7639C81.9034 21.4849 81.7578 21.1424 81.7578 20.7364C81.7578 19.6201 83.3083 17.5968 86.4091 14.6665H83.4855C83.0045 14.6665 82.764 14.508 82.764 14.1908Z" fill="#3A3458"/>
<path d="M94.2997 18.8527C94.2871 18.9795 93.8757 19.3157 93.0657 19.8611C92.2557 20.3939 91.3191 20.914 90.2559 21.4214C89.1928 21.9288 88.4271 22.1825 87.9588 22.1825C87.5031 22.1825 87.1108 22.043 86.7817 21.7639C86.4526 21.4722 86.2881 21.1424 86.2881 20.7745C86.2881 20.0134 86.6235 19.2332 87.2943 18.4341C87.9778 17.6222 88.7625 16.9689 89.6484 16.4742C90.5471 15.9668 91.3064 15.7131 91.9266 15.7131C92.5595 15.7131 93.0341 15.7955 93.3505 15.9604C93.6669 16.1127 93.8251 16.4044 93.8251 16.8357C93.8251 17.267 93.5467 17.7681 92.9898 18.3389C92.4455 18.8971 91.9772 19.1761 91.5849 19.1761C91.3318 19.1761 91.2052 19.1 91.2052 18.9478C91.2052 18.8463 91.2685 18.7575 91.395 18.6814C91.5343 18.6053 91.7558 18.4277 92.0595 18.1486C92.3633 17.8696 92.5152 17.6793 92.5152 17.5778C92.5152 17.5397 92.4772 17.5207 92.4012 17.5207C91.9583 17.5207 91.3318 17.9266 90.5217 18.7385C89.7117 19.5504 89.3067 20.1592 89.3067 20.5652C89.3067 20.7681 89.4143 20.8696 89.6294 20.8696C89.8573 20.8696 90.218 20.7428 90.7116 20.4891C91.2052 20.2227 91.8127 19.8675 92.5341 19.4235C93.2556 18.9795 93.6669 18.7322 93.7682 18.6814C93.8821 18.618 93.9707 18.5863 94.0339 18.5863C94.2111 18.5863 94.2997 18.6751 94.2997 18.8527Z" fill="#3A3458"/>
<path d="M102.104 20.9648C101.661 21.3073 101.123 21.6371 100.49 21.9542C99.8701 22.2713 99.3449 22.4299 98.9146 22.4299C98.4969 22.4299 98.1615 22.303 97.9084 22.0493C97.6552 21.7956 97.5287 21.4849 97.5287 21.117C97.5287 20.5081 97.9653 19.6899 98.8386 18.6624C98.9146 18.5863 98.9525 18.5292 98.9525 18.4911C98.9525 18.4404 98.9399 18.415 98.9146 18.415C98.8892 18.415 98.7943 18.4467 98.6298 18.5102C98.4779 18.5609 98.0476 18.8527 97.3388 19.3854C96.63 19.9055 95.9403 20.4637 95.2695 21.0599C94.5987 21.6434 94.1177 21.9352 93.8266 21.9352C93.5481 21.9352 93.3393 21.8147 93.2001 21.5736C93.0735 21.3326 93.0102 21.0599 93.0102 20.7555C93.0102 19.8167 93.738 18.3897 95.1935 16.4742C96.6617 14.5587 98.1931 12.8526 99.7879 11.3557C101.383 9.84615 102.401 9.09138 102.844 9.09138C103.06 9.09138 103.262 9.18652 103.452 9.3768C103.654 9.55439 103.756 9.80175 103.756 10.1189C103.756 10.4233 103.376 11.1083 102.617 12.1739C101.857 13.2395 101.009 14.3621 100.073 15.5418C98.8956 17.0133 98.307 17.8125 98.307 17.9393C98.307 17.9901 98.3324 18.0154 98.383 18.0154C98.4336 18.0154 98.6488 17.914 99.0285 17.711C99.4082 17.4953 99.8195 17.2987 100.262 17.1211C100.705 16.9309 101.009 16.823 101.174 16.7977C101.351 16.7596 101.553 16.7406 101.781 16.7406C102.022 16.7406 102.256 16.7913 102.484 16.8928C102.724 16.9943 102.844 17.1465 102.844 17.3495C102.844 17.5397 102.382 18.1677 101.459 19.2332C100.547 20.2861 100.092 20.8886 100.092 21.0409C100.092 21.1804 100.155 21.2502 100.281 21.2502C100.547 21.2502 101.066 20.9711 101.838 20.4129C102.129 20.21 102.3 20.0958 102.351 20.0704C102.401 20.0451 102.458 20.0324 102.522 20.0324C102.699 20.0324 102.787 20.1212 102.787 20.2988C102.787 20.4003 102.56 20.6223 102.104 20.9648Z" fill="#3A3458"/>
<path d="M78.1989 28.9722C79.0849 28.9722 79.7557 29.0927 80.2113 29.3338C80.6796 29.5748 80.9137 29.949 80.9137 30.4564C80.9137 30.9638 80.5973 31.5283 79.9645 32.1499C79.3443 32.7715 78.9013 33.0823 78.6355 33.0823C78.3698 33.0823 78.2369 32.9998 78.2369 32.8349C78.2369 32.6319 78.4014 32.3719 78.7305 32.0548C79.0722 31.7249 79.2431 31.522 79.2431 31.4459C79.2431 31.4078 79.2114 31.3888 79.1481 31.3888C78.4773 31.3888 77.4648 31.9279 76.1106 33.0061C74.769 34.0844 73.5476 35.3022 72.4465 36.6595C71.358 38.0041 70.8138 39.0253 70.8138 39.723C70.8138 39.9386 70.8897 40.0464 71.0416 40.0464C71.396 40.0464 72.3326 39.3488 73.8513 37.9534C75.3701 36.558 76.8003 35.1563 78.1419 33.7482C78.2685 33.7229 78.3761 33.7102 78.4647 33.7102C78.5533 33.7102 78.6545 33.7482 78.7684 33.8243C78.8823 33.8878 78.9646 33.9575 79.0152 34.0336C79.0659 34.1098 79.0849 34.2049 79.0722 34.3191C79.0595 34.4205 78.9773 34.6489 78.8254 35.0041C78.6735 35.3593 78.4963 35.7271 78.2938 36.1077C78.104 36.4756 77.8635 36.9005 77.5724 37.3825C77.2939 37.8646 77.0535 38.2642 76.851 38.5813C76.6611 38.8857 76.4459 39.2219 76.2055 39.5898C75.9523 40.0084 75.8258 40.2558 75.8258 40.3319C75.8258 40.3953 75.8448 40.427 75.8827 40.427C75.9334 40.427 75.9713 40.4207 75.9966 40.408C76.022 40.3953 76.0916 40.3509 76.2055 40.2748C76.3194 40.186 76.4523 40.0908 76.6042 39.9894C76.756 39.8879 76.8699 39.8054 76.9459 39.742C77.0218 39.6786 77.1041 39.6469 77.1927 39.6469C77.2939 39.6469 77.3825 39.6786 77.4585 39.742C77.5344 39.8054 77.5724 39.8815 77.5724 39.9703C77.5724 40.3763 77.1041 40.871 76.1675 41.4545C75.2309 42.0253 74.5791 42.3108 74.2121 42.3108C73.8577 42.3108 73.5666 42.2156 73.3388 42.0253C73.1236 41.8351 73.016 41.6067 73.016 41.3403C73.016 41.0613 73.0919 40.7188 73.2438 40.3128L73.4716 39.723C73.4716 39.6849 73.459 39.6659 73.4337 39.6659C73.4084 39.6659 73.3641 39.6849 73.3008 39.723C71.3137 41.3086 69.8329 42.1015 68.8583 42.1015C68.1116 42.1015 67.5167 41.8097 67.0737 41.2262C66.6434 40.6427 66.4282 39.8942 66.4282 38.9809C66.4282 38.0675 66.6814 37.0971 67.1876 36.0696C67.6939 35.0421 68.3647 34.1161 69.2 33.2916C70.048 32.4543 70.9846 31.7059 72.0098 31.0463C73.035 30.3866 74.1045 29.8792 75.2183 29.524C76.332 29.1562 77.3256 28.9722 78.1989 28.9722Z" fill="#3A3458"/>
<path d="M81.665 35.0041C81.7536 35.0041 81.8358 35.0485 81.9118 35.1373C81.9877 35.2134 82.0257 35.3085 82.0257 35.4227C82.0257 35.5242 81.9624 35.6574 81.8358 35.8223C81.3422 36.4312 81.0132 36.8181 80.8486 36.983C80.6967 37.1352 80.6208 37.2367 80.6208 37.2874C80.6208 37.3381 80.6588 37.3635 80.7347 37.3635C80.8233 37.3635 81.165 37.2557 81.7599 37.04C82.3548 36.8117 82.7471 36.6975 82.937 36.6975C83.1268 36.6975 83.323 36.78 83.5255 36.9449C83.728 37.0971 83.8293 37.3001 83.8293 37.5538C83.8293 37.7948 83.4432 38.3593 82.6712 39.2473C81.8991 40.1226 81.5131 40.6934 81.5131 40.9598C81.5131 41.0105 81.5321 41.0359 81.5701 41.0359C81.6333 41.0359 81.7472 40.9978 81.9118 40.9217C82.0763 40.8329 82.1776 40.7885 82.2155 40.7885C82.3548 40.7885 82.4244 40.8393 82.4244 40.9408C82.4244 41.334 82.1143 41.7272 81.4941 42.1205C80.8739 42.5137 80.3487 42.7103 79.9184 42.7103C79.5007 42.7103 79.159 42.5898 78.8932 42.3488C78.6274 42.1205 78.4945 41.8097 78.4945 41.4165C78.4945 41.0232 78.6843 40.5856 79.064 40.1035C79.4564 39.6088 79.8551 39.26 80.2601 39.057C80.6778 38.854 80.8866 38.6891 80.8866 38.5623C80.8866 38.5242 80.8803 38.4988 80.8676 38.4862C80.3107 38.7145 79.8551 38.8287 79.5007 38.8287C78.8046 38.8287 78.4565 38.6257 78.4565 38.2198C78.4565 37.7504 78.8615 37.1352 79.6716 36.3741C80.4816 35.613 81.1461 35.1563 81.665 35.0041Z" fill="#3A3458"/>
<path d="M87.264 35.0041C87.3526 35.0041 87.4349 35.0485 87.5108 35.1373C87.5868 35.2134 87.6248 35.3085 87.6248 35.4227C87.6248 35.5242 87.5615 35.6574 87.4349 35.8223C86.9413 36.4312 86.6122 36.8181 86.4477 36.983C86.2958 37.1352 86.2199 37.2367 86.2199 37.2874C86.2199 37.3381 86.2578 37.3635 86.3338 37.3635C86.4224 37.3635 86.7641 37.2557 87.359 37.04C87.9538 36.8117 88.3462 36.6975 88.536 36.6975C88.7259 36.6975 88.9221 36.78 89.1246 36.9449C89.3271 37.0971 89.4283 37.3001 89.4283 37.5538C89.4283 37.7948 89.0423 38.3593 88.2702 39.2473C87.4982 40.1226 87.1122 40.6934 87.1122 40.9598C87.1122 41.0105 87.1312 41.0359 87.1691 41.0359C87.2324 41.0359 87.3463 40.9978 87.5108 40.9217C87.6754 40.8329 87.7766 40.7885 87.8146 40.7885C87.9538 40.7885 88.0234 40.8393 88.0234 40.9408C88.0234 41.334 87.7134 41.7272 87.0932 42.1205C86.473 42.5137 85.9478 42.7103 85.5174 42.7103C85.0998 42.7103 84.758 42.5898 84.4922 42.3488C84.2265 42.1205 84.0936 41.8097 84.0936 41.4165C84.0936 41.0232 84.2834 40.5856 84.6631 40.1035C85.0555 39.6088 85.4541 39.26 85.8592 39.057C86.2768 38.854 86.4857 38.6891 86.4857 38.5623C86.4857 38.5242 86.4793 38.4988 86.4667 38.4862C85.9098 38.7145 85.4542 38.8287 85.0998 38.8287C84.4037 38.8287 84.0556 38.6257 84.0556 38.2198C84.0556 37.7504 84.4606 37.1352 85.2706 36.3741C86.0806 35.613 86.7451 35.1563 87.264 35.0041Z" fill="#3A3458"/>
<path d="M94.6857 37.5919C94.6857 37.9344 94.8882 38.1056 95.2932 38.1056C95.6729 38.1056 96.0905 38.0105 96.5462 37.8202C97.0018 37.6299 97.2486 37.5348 97.2866 37.5348C97.3246 37.5348 97.3625 37.5665 97.4005 37.6299C97.4511 37.6933 97.4765 37.7568 97.4765 37.8202C97.4765 37.9597 97.179 38.1437 96.5842 38.372C96.002 38.5876 95.578 38.6955 95.3122 38.6955C95.0464 38.6955 94.8565 38.6955 94.7426 38.6955C94.6414 38.6828 94.5591 38.7462 94.4958 38.8857C93.5592 40.649 92.629 41.759 91.705 42.2156C91.3 42.4186 90.8697 42.5201 90.4141 42.5201C89.9711 42.5201 89.604 42.3742 89.3129 42.0824C89.0345 41.778 88.8953 41.3023 88.8953 40.6553C88.8953 39.7547 89.1864 38.9175 89.7686 38.1437C90.3634 37.3572 91.0342 36.7673 91.781 36.3741C92.5277 35.9808 93.2048 35.7842 93.8124 35.7842C94.8375 35.8984 95.3501 36.2092 95.3501 36.7166C95.3501 36.8561 95.3122 36.983 95.2362 37.0971C95.1729 37.1986 95.116 37.262 95.0654 37.2874C95.0274 37.3001 94.9768 37.3128 94.9135 37.3255C94.7616 37.3635 94.6857 37.4523 94.6857 37.5919ZM93.1289 38.4671C92.7239 38.7716 92.3252 39.1585 91.9329 39.6278C91.5532 40.0972 91.3633 40.4841 91.3633 40.7885C91.3633 41.0803 91.4456 41.2262 91.6101 41.2262C91.8632 41.2262 92.3252 40.8393 92.996 40.0655C93.6795 39.279 94.0212 38.632 94.0212 38.1246C94.0212 38.0485 93.9706 38.0105 93.8693 38.0105C93.7807 38.0105 93.5339 38.1627 93.1289 38.4671Z" fill="#3A3458"/>
<path d="M100.874 35.5368L100.78 35.9745C100.78 35.9999 100.811 36.0887 100.874 36.2409C100.95 36.3804 100.982 36.5136 100.969 36.6405C100.969 36.7673 100.754 37.0654 100.324 37.5348C99.8936 38.0041 99.6784 38.2769 99.6784 38.353C99.6784 38.4291 99.6911 38.4671 99.7164 38.4671C99.8556 38.4671 100.615 37.947 101.995 36.9069C102.311 36.6658 102.653 36.5453 103.02 36.5453C103.399 36.5453 103.589 36.7229 103.589 37.0781C103.589 37.6363 103.216 38.4735 102.469 39.5898C102.355 39.7674 102.273 39.8879 102.222 39.9513C102.184 40.0147 102.165 40.0782 102.165 40.1416C102.165 40.1923 102.184 40.2177 102.222 40.2177C102.26 40.2177 102.336 40.186 102.45 40.1226C102.564 40.0464 103.361 39.3488 104.842 38.0295C106.336 36.6975 107.266 35.8984 107.633 35.632C108 35.3656 108.266 35.2324 108.43 35.2324C108.595 35.2324 108.728 35.2705 108.829 35.3466C108.943 35.41 109 35.5051 109 35.632C109 35.7588 108.823 35.9364 108.468 36.1648C108.114 36.3804 107.462 36.8942 106.513 37.706C105.564 38.5179 104.627 39.3361 103.703 40.1606C102.779 40.9852 102.254 41.4482 102.127 41.5496C101.343 42.2093 100.659 42.5391 100.077 42.5391C99.748 42.5391 99.4886 42.4376 99.2987 42.2346C99.1215 42.0444 99.0329 41.778 99.0329 41.4355C99.0329 41.0803 99.1911 40.649 99.5075 40.1416C99.824 39.6342 99.9822 39.3551 99.9822 39.3044C99.9822 39.2536 99.9632 39.2282 99.9252 39.2282C99.824 39.2663 99.5898 39.4122 99.2228 39.6659C98.1596 40.4016 97.3812 40.9281 96.8876 41.2452C96.394 41.5623 96.0649 41.7209 95.9004 41.7209C95.7359 41.7209 95.5587 41.6004 95.3688 41.3594C95.1916 41.1183 95.103 40.909 95.103 40.7314C95.103 40.2621 95.4511 39.5834 96.1472 38.6955C96.856 37.8075 97.647 37.0083 98.5203 36.298C99.3936 35.5876 100.052 35.2324 100.495 35.2324C100.748 35.2578 100.874 35.3593 100.874 35.5368Z" fill="#3A3458"/>
</svg>
