<svg width="92" height="45" viewBox="0 0 92 45" fill="none" xmlns="http://www.w3.org/2000/svg">
<path fill-rule="evenodd" clip-rule="evenodd" d="M12.1456 6.14189V21.5109L8.02511 17.3895C6.79595 16.1455 6.10645 14.4657 6.10645 12.7152C6.10645 10.9647 6.79595 9.28496 8.02511 8.04094C9.12923 6.93674 10.5903 6.26337 12.1456 6.14189ZM31.1769 11.3337L18.2531 24.2826V1.27326C16.3524 0.354093 14.2541 -0.0792647 12.1456 0.0119121C8.96703 0.142517 5.95393 1.46688 3.70543 3.72168C1.33211 6.11401 0 9.35008 0 12.7232C0 16.0963 1.33211 19.3323 3.70543 21.7247L12.1456 30.1812V32.6331C12.0669 34.2632 11.3863 35.8058 10.2361 36.9612C9.26242 37.9248 8.01569 38.5638 6.66608 38.7912C5.31648 39.0185 3.92976 38.823 2.69515 38.2314V44.6722C4.79595 45.1588 6.98567 45.1029 9.05897 44.5096C11.1323 43.9164 13.0212 42.8052 14.5487 41.2804C16.7723 39.0513 18.0878 36.0725 18.2389 32.9246L28.6785 43.3844H37.3178L18.2513 24.2826L26.8572 24.3144L39.8127 11.3337H31.1769Z" fill="#3A3458"/>
<path d="M46.1881 42.0557V28.8994H48.0736V42.0557H46.1881ZM49.8412 37.2655L53.0902 42.0557H50.9017L48.5954 38.345L49.8412 37.2655ZM47.5012 39.9136L47.316 38.092L51.6425 34.7523L52.7872 35.7643L47.5012 39.9136Z" fill="#3A3458"/>
<path d="M58.0716 42.2413C57.2299 42.2413 56.5116 42.0782 55.9168 41.7521C55.322 41.426 54.8675 40.9762 54.5532 40.4028C54.239 39.818 54.0819 39.1602 54.0819 38.4293C54.0819 37.7096 54.2614 37.0631 54.6206 36.4896C54.9797 35.9161 55.4623 35.4607 56.0683 35.1234C56.6856 34.7748 57.3646 34.6005 58.1053 34.6005C59.0817 34.6005 59.8841 34.8872 60.5126 35.4607C61.1523 36.0229 61.5788 36.8213 61.792 37.8558L56.0515 39.7955L55.6138 38.7329L60.0918 37.1305L59.7046 37.3498C59.5811 37.0125 59.3791 36.7201 59.0985 36.4727C58.8292 36.2253 58.4476 36.1016 57.9538 36.1016C57.561 36.1016 57.2131 36.1972 56.9101 36.3884C56.607 36.5683 56.3657 36.8269 56.1862 37.1643C56.0178 37.4904 55.9337 37.8783 55.9337 38.3281C55.9337 38.7891 56.0291 39.1939 56.2198 39.5425C56.4106 39.8911 56.6688 40.161 56.9942 40.3521C57.3197 40.5321 57.69 40.622 58.1053 40.622C58.3971 40.622 58.6777 40.5714 58.947 40.4702C59.2164 40.369 59.4689 40.2341 59.7046 40.0654L60.5631 41.4654C60.1928 41.7015 59.7831 41.8927 59.3342 42.0389C58.8965 42.1738 58.4757 42.2413 58.0716 42.2413Z" fill="#3A3458"/>
<path d="M65.3475 34.921L65.5159 36.945L65.4485 36.6583C65.6505 36.231 65.9255 35.8655 66.2734 35.5619C66.6326 35.247 66.9973 35.0109 67.3677 34.8535C67.738 34.6848 68.041 34.6005 68.2767 34.6005L68.1926 36.4896C67.6538 36.4446 67.1825 36.5458 66.7785 36.7932C66.3857 37.0293 66.077 37.3442 65.8526 37.7378C65.6393 38.1313 65.5327 38.5474 65.5327 38.9859V42.0557H63.6473V34.921H65.3475Z" fill="#3A3458"/>
<path d="M73.006 42.2413C72.3326 42.2413 71.721 42.1007 71.1711 41.8196C70.6324 41.5385 70.2059 41.1224 69.8916 40.5714C69.5774 40.0092 69.4203 39.3176 69.4203 38.4968C69.4203 37.6872 69.583 36.9956 69.9085 36.4221C70.2452 35.8374 70.6829 35.3876 71.2216 35.0728C71.7715 34.7579 72.3663 34.6005 73.006 34.6005C73.6906 34.6005 74.2405 34.7354 74.6558 35.0053C75.0823 35.2752 75.4133 35.5956 75.649 35.9667L75.548 36.2366L75.7332 34.921H77.4671V42.0557H75.5817V40.3184L75.7669 40.7738C75.722 40.8413 75.6322 40.9537 75.4975 41.1112C75.3628 41.2574 75.1777 41.4204 74.942 41.6003C74.7063 41.7802 74.4257 41.932 74.1003 42.0557C73.786 42.1794 73.4213 42.2413 73.006 42.2413ZM73.5279 40.6895C73.8646 40.6895 74.1676 40.6276 74.4369 40.504C74.7175 40.3803 74.9532 40.206 75.144 39.9811C75.346 39.7562 75.4919 39.4863 75.5817 39.1715V37.6197C75.4919 37.3273 75.346 37.0743 75.144 36.8607C74.942 36.6358 74.6951 36.4615 74.4033 36.3378C74.1227 36.2141 73.8085 36.1522 73.4605 36.1522C73.079 36.1522 72.7254 36.2478 72.4 36.439C72.0745 36.6301 71.8108 36.8944 71.6088 37.2317C71.418 37.5691 71.3226 37.957 71.3226 38.3956C71.3226 38.8229 71.4236 39.2108 71.6256 39.5594C71.8276 39.908 72.097 40.1835 72.4336 40.3859C72.7703 40.5883 73.1351 40.6895 73.5279 40.6895Z" fill="#3A3458"/>
<path d="M80.0707 28.8994H81.9562V42.0557H80.0707V28.8994Z" fill="#3A3458"/>
<path d="M87.5389 42.2413C86.8655 42.2413 86.2538 42.1007 85.7039 41.8196C85.1652 41.5385 84.7387 41.1224 84.4245 40.5714C84.1103 40.0092 83.9531 39.3176 83.9531 38.4968C83.9531 37.6872 84.1159 36.9956 84.4413 36.4221C84.778 35.8374 85.2157 35.3876 85.7544 35.0728C86.3043 34.7579 86.8992 34.6005 87.5389 34.6005C88.2235 34.6005 88.7734 34.7354 89.1887 35.0053C89.6151 35.2752 89.9462 35.5956 90.1819 35.9667L90.0809 36.2366L90.266 34.921H92V42.0557H90.1145V40.3184L90.2997 40.7738C90.2548 40.8413 90.165 40.9537 90.0304 41.1112C89.8957 41.2574 89.7105 41.4204 89.4748 41.6003C89.2392 41.7802 88.9586 41.932 88.6331 42.0557C88.3189 42.1794 87.9541 42.2413 87.5389 42.2413ZM88.0607 40.6895C88.3974 40.6895 88.7005 40.6276 88.9698 40.504C89.2504 40.3803 89.4861 40.206 89.6768 39.9811C89.8789 39.7562 90.0248 39.4863 90.1145 39.1715V37.6197C90.0248 37.3273 89.8789 37.0743 89.6768 36.8607C89.4748 36.6358 89.2279 36.4615 88.9361 36.3378C88.6556 36.2141 88.3413 36.1522 87.9934 36.1522C87.6118 36.1522 87.2583 36.2478 86.9328 36.439C86.6074 36.6301 86.3436 36.8944 86.1416 37.2317C85.9508 37.5691 85.8554 37.957 85.8554 38.3956C85.8554 38.8229 85.9564 39.2108 86.1584 39.5594C86.3605 39.908 86.6298 40.1835 86.9665 40.3859C87.3032 40.5883 87.6679 40.6895 88.0607 40.6895Z" fill="#3A3458"/>
</svg>
