<svg width="65" height="45" viewBox="0 0 65 45" fill="none" xmlns="http://www.w3.org/2000/svg">
<path fill-rule="evenodd" clip-rule="evenodd" d="M19.7288 28.0799C27.233 28.0799 34.7369 28.0799 42.2403 28.0799L43.9682 25.0747H35.0672L40.1456 16.2476L38.4178 13.2468L31.6125 25.0781H24.9113L37.6058 3.00858L35.8791 0L19.7288 28.0788V28.0799ZM41.0627 23.6636H37.607L41.8198 16.3385L38.4647 10.5144L30.9012 23.6647H27.4466L38.4647 4.50619L45.27 16.3385C43.869 18.7813 42.4666 21.2234 41.0627 23.6647V23.6636Z" fill="#3A3458"/>
<path d="M2.40959 37.9125C2.94008 37.9125 3.42573 37.9837 3.86656 38.1262C4.30738 38.2687 4.6847 38.4825 4.99851 38.7675C5.31978 39.0525 5.56635 39.4087 5.73819 39.8362C5.91751 40.2562 6.00717 40.7475 6.00717 41.31C6.00717 41.9625 5.90257 42.525 5.69336 42.9975C5.48416 43.4625 5.20024 43.845 4.8416 44.145C4.48296 44.4375 4.06455 44.655 3.58637 44.7975C3.11566 44.9325 2.61133 45 2.07337 45H0V37.9125H2.40959ZM1.3673 43.92H1.9725C2.30125 43.92 2.6188 43.8825 2.92513 43.8075C3.23894 43.725 3.51539 43.5863 3.75448 43.3913C3.99357 43.1963 4.1841 42.93 4.32606 42.5925C4.47549 42.255 4.55021 41.8275 4.55021 41.31C4.55021 40.56 4.33727 39.9862 3.91139 39.5887C3.49298 39.1912 2.92513 38.9925 2.20786 38.9925H1.3673V43.92Z" fill="#3A3458"/>
<path d="M7.28919 37.9125H11.7722V38.9925H8.6565V40.7812H11.4808V41.85H8.6565V43.92H11.8058V45H7.28919V37.9125Z" fill="#3A3458"/>
<path d="M14.6605 42.2325H16.6218L16.252 41.1863C16.1474 40.8713 16.0465 40.575 15.9494 40.2975C15.8597 40.02 15.7663 39.7163 15.6692 39.3863H15.6468C15.5422 39.6938 15.4413 39.9938 15.3442 40.2863C15.247 40.5713 15.1424 40.8713 15.0304 41.1863L14.6605 42.2325ZM14.9967 37.9125H16.364L19.0426 45H17.5969L16.9692 43.2562H14.3355L13.7079 45H12.2845L14.9967 37.9125Z" fill="#3A3458"/>
<path d="M19.9523 37.9125H21.1851L23.8748 41.895C24.0243 42.12 24.1625 42.345 24.2895 42.57C24.4165 42.7875 24.5174 42.9675 24.5921 43.11H24.6145C24.5697 42.5925 24.5473 42.075 24.5473 41.5575C24.5473 41.0325 24.5473 40.5112 24.5473 39.9937V37.9125H25.8361V45H24.6033L22.0368 41.2313C21.865 40.9763 21.7006 40.71 21.5437 40.4325C21.3943 40.155 21.2785 39.93 21.1963 39.7575H21.1739C21.2112 40.3125 21.2299 40.8525 21.2299 41.3775C21.2374 41.895 21.2411 42.4237 21.2411 42.9637V45H19.9523V37.9125Z" fill="#3A3458"/>
<path d="M34.7734 37.9125V39.015H32.7V45H31.3327V39.015H29.3153V37.9125H34.7734Z" fill="#3A3458"/>
<path d="M36.7142 42.2325H38.6755L38.3056 41.1863C38.201 40.8713 38.1001 40.575 38.003 40.2975C37.9134 40.02 37.82 39.7163 37.7228 39.3863H37.7004C37.5958 39.6938 37.4949 39.9938 37.3978 40.2863C37.3007 40.5713 37.1961 40.8713 37.084 41.1863L36.7142 42.2325ZM37.0504 37.9125H38.4177L41.0963 45H39.6505L39.0229 43.2562H36.3891L35.7615 45H34.3382L37.0504 37.9125Z" fill="#3A3458"/>
<path d="M44.4155 37.9125C44.946 37.9125 45.4316 37.9837 45.8725 38.1262C46.3133 38.2687 46.6906 38.4825 47.0044 38.7675C47.3257 39.0525 47.5722 39.4087 47.7441 39.8362C47.9234 40.2562 48.0131 40.7475 48.0131 41.31C48.0131 41.9625 47.9085 42.525 47.6993 42.9975C47.4901 43.4625 47.2061 43.845 46.8475 44.145C46.4889 44.4375 46.0705 44.655 45.5923 44.7975C45.1216 44.9325 44.6172 45 44.0793 45H42.0059V37.9125H44.4155ZM43.3732 43.92H43.9784C44.3072 43.92 44.6247 43.8825 44.931 43.8075C45.2448 43.725 45.5213 43.5863 45.7604 43.3913C45.9995 43.1963 46.19 42.93 46.332 42.5925C46.4814 42.255 46.5561 41.8275 46.5561 41.31C46.5561 40.56 46.3432 39.9862 45.9173 39.5887C45.4989 39.1912 44.931 38.9925 44.2138 38.9925H43.3732V43.92Z" fill="#3A3458"/>
<path d="M49.1856 37.9125H50.4185L53.1082 41.895C53.2577 42.12 53.3959 42.345 53.5229 42.57C53.6499 42.7875 53.7508 42.9675 53.8255 43.11H53.8479C53.8031 42.5925 53.7807 42.075 53.7807 41.5575C53.7807 41.0325 53.7807 40.5112 53.7807 39.9937V37.9125H55.0695V45H53.8367L51.2702 41.2313C51.0984 40.9763 50.934 40.71 50.7771 40.4325C50.6277 40.155 50.5119 39.93 50.4297 39.7575H50.4073C50.4446 40.3125 50.4633 40.8525 50.4633 41.3775C50.4708 41.895 50.4745 42.4237 50.4745 42.9637V45H49.1856V37.9125Z" fill="#3A3458"/>
<path d="M58.341 42.2325H60.3023L59.9324 41.1863C59.8278 40.8713 59.7269 40.575 59.6298 40.2975C59.5402 40.02 59.4468 39.7163 59.3496 39.3863H59.3272C59.2226 39.6938 59.1217 39.9938 59.0246 40.2863C58.9275 40.5713 58.8229 40.8713 58.7108 41.1863L58.341 42.2325ZM58.6772 37.9125H60.0445L62.7231 45H61.2773L60.6497 43.2562H58.0159L57.3883 45H55.965L58.6772 37.9125Z" fill="#3A3458"/>
<path d="M65 37.9125V45H63.6327V37.9125H65Z" fill="#3A3458"/>
</svg>
