<svg width="116" height="45" viewBox="0 0 116 45" fill="none" xmlns="http://www.w3.org/2000/svg">
<path fill-rule="evenodd" clip-rule="evenodd" d="M6.7034 7.57147H32.6579L41.2665 22.5L32.6579 37.4285H10.9078L6.54902 45H37.0167L49.9931 22.4982L37.0167 0H11.0694L6.7034 7.57147ZM9.79085 31.7899H31.136L26.7773 24.2201H14.1605L17.2116 18.927H34.8282L30.4695 11.3573H12.8529L0 33.6445L4.35875 41.2161L9.79085 31.7899Z" fill="#3A3458"/>
<path d="M59.2571 29.1413V14.9308H67.522V29.1413H59.2571ZM65.1606 26.4627H67.2457V25.0291H66.2659L65.1606 22.9918C65.6295 22.8074 66.0063 22.5307 66.291 22.1618C66.5758 21.7845 66.7181 21.3192 66.7181 20.7659C66.7181 19.9443 66.446 19.3281 65.9017 18.9173C65.3574 18.4981 64.5786 18.2885 63.5654 18.2885H59.8726V19.7221H60.7518V25.0291H59.8726V26.4627H63.3142V25.0291H62.4349V23.3439H63.5403L65.1606 26.4627ZM64.9094 20.8036C64.9094 21.1893 64.7922 21.4869 64.5577 21.6965C64.3232 21.9061 63.8836 22.0109 63.2388 22.0109H62.4349V19.7221H63.2639C63.8752 19.7221 64.3023 19.8018 64.5451 19.9611C64.788 20.112 64.9094 20.3928 64.9094 20.8036Z" fill="#3A3458"/>
<path d="M67.2669 29.1413V14.9308H76.4613V29.1413H67.2669ZM76.0342 22.363C76.0342 21.2144 75.6658 20.2293 74.9289 19.4077C74.2004 18.5777 73.183 18.1627 71.8767 18.1627C70.5955 18.1627 69.5781 18.5693 68.8245 19.3826C68.0708 20.1958 67.694 21.1977 67.694 22.3882C67.694 23.5284 68.0499 24.5135 68.7617 25.3435C69.4734 26.1735 70.495 26.5884 71.8264 26.5884C73.1495 26.5884 74.1795 26.1735 74.9163 25.3435C75.6616 24.5135 76.0342 23.52 76.0342 22.363ZM74.213 22.4133C74.213 23.2098 74.0287 23.8595 73.6603 24.3626C73.2918 24.8572 72.7099 25.1045 71.9144 25.1045C71.0519 25.1045 70.4364 24.832 70.068 24.2871C69.6995 23.7421 69.5153 23.0966 69.5153 22.3504C69.5153 21.5791 69.7037 20.9378 70.0805 20.4264C70.4573 19.9066 71.0519 19.6467 71.8641 19.6467C72.6261 19.6467 73.2081 19.8898 73.6101 20.3761C74.012 20.8623 74.213 21.5414 74.213 22.4133Z" fill="#3A3458"/>
<path d="M76.209 29.1413V14.9308H85.4034V29.1413H76.209ZM84.9763 22.363C84.9763 21.2144 84.6079 20.2293 83.871 19.4077C83.1425 18.5777 82.125 18.1627 80.8187 18.1627C79.5376 18.1627 78.5202 18.5693 77.7665 19.3826C77.0129 20.1958 76.6361 21.1977 76.6361 22.3882C76.6361 23.5284 76.992 24.5135 77.7037 25.3435C78.4155 26.1735 79.4371 26.5884 80.7685 26.5884C82.0916 26.5884 83.1215 26.1735 83.8584 25.3435C84.6037 24.5135 84.9763 23.52 84.9763 22.363ZM83.155 22.4133C83.155 23.2098 82.9708 23.8595 82.6024 24.3626C82.2339 24.8572 81.6519 25.1045 80.8564 25.1045C79.9939 25.1045 79.3785 24.832 79.01 24.2871C78.6416 23.7421 78.4574 23.0966 78.4574 22.3504C78.4574 21.5791 78.6458 20.9378 79.0226 20.4264C79.3994 19.9066 79.9939 19.6467 80.8062 19.6467C81.5682 19.6467 82.1502 19.8898 82.5521 20.3761C82.9541 20.8623 83.155 21.5414 83.155 22.4133Z" fill="#3A3458"/>
<path d="M85.1511 29.1413V14.9308H93.5918V29.1413H85.1511ZM91.7454 21.1809L93.1773 21.0551L92.9261 18.2885H85.7917L85.5405 21.0551L86.9724 21.1809L87.2236 19.7221H88.5173V25.0291H87.2613V26.4627H91.5319V25.0291H90.2004V19.7221H91.4942L91.7454 21.1809Z" fill="#3A3458"/>
<path d="M93.2821 29.1413V14.9308H95.8947V29.1413H93.2821Z" fill="#3A3458"/>
<path d="M95.5774 29.1413V14.9308H103.352V29.1413H95.5774ZM103.038 20.9545C103.038 20.1329 102.775 19.4832 102.247 19.0053C101.719 18.5274 100.949 18.2885 99.9359 18.2885H96.1928V19.7221H97.0721V25.0291H96.1928V26.4627H100.011V25.0291H98.7552V23.7212H100.011C100.815 23.7212 101.519 23.4948 102.121 23.0421C102.733 22.581 103.038 21.8851 103.038 20.9545ZM101.23 20.9797C101.23 21.3737 101.117 21.6923 100.89 21.9354C100.673 22.1786 100.275 22.3001 99.6972 22.3001H98.7552V19.7221H99.7223C100.283 19.7221 100.673 19.8311 100.89 20.0491C101.117 20.2671 101.23 20.5773 101.23 20.9797Z" fill="#3A3458"/>
<path d="M103.097 14.9308H111.562V25.0291H110.784L107.844 18.2885H105.043V19.7221H106.174L103.838 25.0291H103.097V14.9308ZM107.355 20.6904L108.209 22.9918H106.362L107.279 20.6904H107.355ZM111.562 29.1413H103.097V26.4627H106.312V25.0291H105.546L105.885 24.1991H108.661L108.962 25.0291H108.309V26.4627H111.562V29.1413Z" fill="#3A3458"/>
<path d="M111.315 29.1413V14.9308H116V29.1413H111.315ZM111.93 26.4627H115.372V25.0291H114.493V19.7221H115.372V18.2885H111.93V19.7221H112.81V25.0291H111.93V26.4627Z" fill="#3A3458"/>
</svg>
