<svg width="197" height="43" viewBox="0 0 197 43" fill="none" xmlns="http://www.w3.org/2000/svg">
<g clip-path="url(#clip0_2090_3361)">
<path d="M10.9 26.9277L16.9457 11.2833C17.8741 9.14319 19.9575 5.46072 22.4581 7.1641L22.1552 6.4471C19.0007 -0.392515 13.1661 1.28592 11.0816 7.25408L1.60254 31.9159C2.58213 33.7606 8.77196 28.6756 10.9 26.9277Z" fill="#0D0D0D"/>
<path d="M26.0572 16.6554L22.6931 7.87378C20.1931 6.17078 18.2256 10.0739 17.2979 12.2142L20.1959 19.9858C22.1521 18.7769 24.1279 17.6541 26.0572 16.6554Z" fill="#0D0D0D"/>
<path d="M27.7028 20.9502C25.8906 22.4276 24.0802 23.9953 22.3018 25.6267L27.4335 39.3821C28.1298 41.5247 35.467 41.0458 35.0722 40.1879L27.7028 20.9502Z" fill="#0D0D0D"/>
<path d="M11.5924 27.4727C11.4544 27.5907 11.0999 27.8927 10.598 28.3024C10.4859 28.3983 10.3727 28.4898 10.2608 28.586L10.2665 28.571C7.65269 30.6771 2.17932 34.7646 1.19973 32.9194L0.298246 35.2584C-1.40894 39.9837 4.64078 42.6806 7.59281 39.8294L7.99931 39.3814C15.2582 29.958 26.007 19.9756 35.3145 13.9658C28.9247 15.8831 19.2182 21.2201 11.5924 27.4727Z" fill="#BF934C"/>
</g>
<path d="M49.8912 21V6.58441H67.3025C68.669 6.58441 69.8928 6.74208 70.974 7.05742C72.0701 7.35775 72.9336 7.8683 73.5643 8.58908C74.21 9.30986 74.5328 10.2934 74.5328 11.5398C74.5328 12.3657 74.3826 13.0489 74.0823 13.5895C73.782 14.1301 73.369 14.5505 72.8435 14.8509C72.3179 15.1512 71.7173 15.3689 71.0415 15.5041C70.3658 15.6392 69.66 15.7218 68.9242 15.7518L67.28 15.4365C69.0669 15.4515 70.4409 15.5266 71.4019 15.6617C72.378 15.7969 73.0537 16.0446 73.4291 16.405C73.8195 16.7504 74.0147 17.2534 74.0147 17.9142V21H68.3837V18.5899C68.3837 18.1394 68.2936 17.8015 68.1134 17.5763C67.9482 17.336 67.5728 17.1709 66.9871 17.0808C66.4165 16.9907 65.5306 16.9456 64.3293 16.9456H55.5222V21H49.8912ZM55.5222 13.184H67.3025C67.753 13.184 68.1284 13.109 68.4287 12.9588C68.744 12.8086 68.9017 12.5233 68.9017 12.1029C68.9017 11.7125 68.744 11.4497 68.4287 11.3145C68.1284 11.1644 67.753 11.0893 67.3025 11.0893H55.5222V13.184ZM97.9001 12.7786V6.58441H103.531V13.7922C103.531 15.0686 103.291 16.1573 102.81 17.0582C102.345 17.9442 101.692 18.68 100.851 19.2656C100.01 19.8362 99.0413 20.2792 97.9451 20.5946C96.8489 20.9099 95.6702 21.1276 94.4088 21.2478C93.1624 21.3829 91.8936 21.4505 90.6022 21.4505C89.2357 21.4505 87.9143 21.3829 86.6379 21.2478C85.3615 21.1276 84.1752 20.9099 83.079 20.5946C81.9979 20.2792 81.0518 19.8362 80.241 19.2656C79.4301 18.68 78.7919 17.9442 78.3264 17.0582C77.8759 16.1573 77.6507 15.0686 77.6507 13.7922V6.58441H83.2818V12.7786C83.2818 13.9799 83.5746 14.8959 84.1602 15.5266C84.7458 16.1573 85.5792 16.5927 86.6604 16.833C87.7566 17.0582 89.0705 17.1709 90.6022 17.1709C92.0888 17.1709 93.3802 17.0582 94.4764 16.833C95.5725 16.5927 96.4135 16.1573 96.9991 15.5266C97.5997 14.8959 97.9001 13.9799 97.9001 12.7786ZM122.904 6.58441C124.931 6.58441 126.605 6.77962 127.926 7.17005C129.248 7.56047 130.284 8.09354 131.035 8.76927C131.786 9.44501 132.311 10.2183 132.611 11.0893C132.927 11.9452 133.085 12.8462 133.085 13.7922C133.085 14.7382 132.912 15.6467 132.566 16.5177C132.221 17.3736 131.65 18.1394 130.855 18.8151C130.074 19.4909 129.03 20.0239 127.724 20.4144C126.432 20.8048 124.826 21 122.904 21H106.686V6.58441H122.904ZM112.317 16.4951H122.678C123.519 16.4951 124.232 16.4426 124.818 16.3375C125.404 16.2173 125.869 16.0446 126.215 15.8194C126.575 15.5942 126.83 15.3164 126.98 14.986C127.146 14.6406 127.228 14.2427 127.228 13.7922C127.228 13.3417 127.146 12.9513 126.98 12.6209C126.83 12.2756 126.575 11.9903 126.215 11.765C125.869 11.5398 125.404 11.3746 124.818 11.2695C124.232 11.1493 123.519 11.0893 122.678 11.0893H112.317V16.4951ZM136.007 21V6.58441H153.419C154.785 6.58441 156.009 6.74208 157.09 7.05742C158.186 7.35775 159.05 7.8683 159.68 8.58908C160.326 9.30986 160.649 10.2934 160.649 11.5398C160.649 12.3657 160.499 13.0489 160.198 13.5895C159.898 14.1301 159.485 14.5505 158.96 14.8509C158.434 15.1512 157.833 15.3689 157.158 15.5041C156.482 15.6392 155.776 15.7218 155.04 15.7518L153.396 15.4365C155.183 15.4515 156.557 15.5266 157.518 15.6617C158.494 15.7969 159.17 16.0446 159.545 16.405C159.936 16.7504 160.131 17.2534 160.131 17.9142V21H154.5V18.5899C154.5 18.1394 154.41 17.8015 154.229 17.5763C154.064 17.336 153.689 17.1709 153.103 17.0808C152.533 16.9907 151.647 16.9456 150.445 16.9456H141.638V21H136.007ZM141.638 13.184H153.419C153.869 13.184 154.244 13.109 154.545 12.9588C154.86 12.8086 155.018 12.5233 155.018 12.1029C155.018 11.7125 154.86 11.4497 154.545 11.3145C154.244 11.1644 153.869 11.0893 153.419 11.0893H141.638V13.184ZM167.461 18.8151V15.4365H182.867V18.8151H167.461ZM162.415 21L172.078 6.58441H178.34L188.093 21H181.899L173.542 8.09354H176.898L168.609 21H162.415Z" fill="#0D0D0D"/>
<path d="M53.6785 32.236C54.5505 32.236 55.2785 32.34 55.8625 32.548C56.4465 32.756 56.9105 33.04 57.2545 33.4C57.6065 33.752 57.8545 34.16 57.9985 34.624C58.1505 35.088 58.2265 35.576 58.2265 36.088C58.2265 36.6 58.1425 37.092 57.9745 37.564C57.8145 38.036 57.5545 38.456 57.1945 38.824C56.8425 39.184 56.3745 39.472 55.7905 39.688C55.2145 39.896 54.5105 40 53.6785 40H49.2385V32.236H53.6785ZM50.8345 38.632H53.6425C54.2185 38.632 54.6945 38.564 55.0705 38.428C55.4545 38.284 55.7585 38.092 55.9825 37.852C56.2065 37.612 56.3665 37.34 56.4625 37.036C56.5585 36.732 56.6065 36.416 56.6065 36.088C56.6065 35.76 56.5585 35.448 56.4625 35.152C56.3665 34.856 56.2065 34.592 55.9825 34.36C55.7585 34.128 55.4545 33.944 55.0705 33.808C54.6945 33.672 54.2185 33.604 53.6425 33.604H50.8345V38.632ZM60.1333 32.236H61.7293V40H60.1333V32.236ZM68.38 40.156C67.66 40.156 67.008 40.072 66.424 39.904C65.848 39.736 65.348 39.484 64.924 39.148C64.508 38.812 64.188 38.396 63.964 37.9C63.74 37.404 63.628 36.832 63.628 36.184C63.628 35.528 63.744 34.948 63.976 34.444C64.216 33.932 64.552 33.5 64.984 33.148C65.424 32.796 65.944 32.532 66.544 32.356C67.152 32.172 67.824 32.08 68.56 32.08C69.432 32.08 70.184 32.204 70.816 32.452C71.448 32.692 71.944 33.032 72.304 33.472C72.672 33.912 72.88 34.436 72.928 35.044H71.392C71.288 34.724 71.116 34.448 70.876 34.216C70.644 33.976 70.336 33.792 69.952 33.664C69.568 33.528 69.104 33.46 68.56 33.46C67.864 33.46 67.268 33.572 66.772 33.796C66.284 34.02 65.912 34.336 65.656 34.744C65.4 35.152 65.272 35.632 65.272 36.184C65.272 36.72 65.384 37.184 65.608 37.576C65.832 37.96 66.176 38.256 66.64 38.464C67.112 38.672 67.712 38.776 68.44 38.776C69 38.776 69.492 38.704 69.916 38.56C70.348 38.408 70.708 38.208 70.996 37.96C71.284 37.704 71.488 37.42 71.608 37.108L72.232 36.88C72.128 37.912 71.736 38.716 71.056 39.292C70.384 39.868 69.492 40.156 68.38 40.156ZM71.824 40C71.824 39.752 71.84 39.468 71.872 39.148C71.904 38.82 71.944 38.492 71.992 38.164C72.04 37.828 72.084 37.52 72.124 37.24H68.572V36.22H73.204V40H71.824ZM75.2327 32.236H76.8287V40H75.2327V32.236ZM78.3313 32.236H86.5153V33.568H78.3313V32.236ZM81.6313 33.4H83.2273V40H81.6313V33.4ZM88.5153 38.308V36.976H93.6513V38.308H88.5153ZM86.5833 40L90.2313 32.236H91.9593L95.6433 40H93.9033L90.7113 33.004H91.4793L88.3113 40H86.5833ZM98.488 32.236V38.668H103.648V40H96.892V32.236H98.488ZM109.477 38.308V36.976H114.613V38.308H109.477ZM107.545 40L111.193 32.236H112.921L116.605 40H114.865L111.673 33.004H112.441L109.273 40H107.545ZM121.931 40.156C121.211 40.156 120.559 40.072 119.975 39.904C119.399 39.736 118.899 39.484 118.475 39.148C118.059 38.812 117.739 38.396 117.515 37.9C117.291 37.404 117.179 36.832 117.179 36.184C117.179 35.528 117.295 34.948 117.527 34.444C117.767 33.932 118.103 33.5 118.535 33.148C118.975 32.796 119.495 32.532 120.095 32.356C120.703 32.172 121.375 32.08 122.111 32.08C122.983 32.08 123.735 32.204 124.367 32.452C124.999 32.692 125.495 33.032 125.855 33.472C126.223 33.912 126.431 34.436 126.479 35.044H124.943C124.839 34.724 124.667 34.448 124.427 34.216C124.195 33.976 123.887 33.792 123.503 33.664C123.119 33.528 122.655 33.46 122.111 33.46C121.415 33.46 120.819 33.572 120.323 33.796C119.835 34.02 119.463 34.336 119.207 34.744C118.951 35.152 118.823 35.632 118.823 36.184C118.823 36.72 118.935 37.184 119.159 37.576C119.383 37.96 119.727 38.256 120.191 38.464C120.663 38.672 121.263 38.776 121.991 38.776C122.551 38.776 123.043 38.704 123.467 38.56C123.899 38.408 124.259 38.208 124.547 37.96C124.835 37.704 125.039 37.42 125.159 37.108L125.783 36.88C125.679 37.912 125.287 38.716 124.607 39.292C123.935 39.868 123.043 40.156 121.931 40.156ZM125.375 40C125.375 39.752 125.391 39.468 125.423 39.148C125.455 38.82 125.495 38.492 125.543 38.164C125.591 37.828 125.635 37.52 125.675 37.24H122.123V36.22H126.755V40H125.375ZM130.152 36.76V38.668H136.14V40H128.556V32.236H136.128V33.568H130.152V35.5H135.048V36.76H130.152ZM145.77 38.416L145.266 38.62V32.236H146.862V40H145.266L138.99 33.868L139.494 33.664V40H137.898V32.236H139.494L145.77 38.416ZM157.895 37.204C157.823 37.828 157.603 38.36 157.235 38.8C156.867 39.24 156.367 39.576 155.735 39.808C155.103 40.04 154.351 40.156 153.479 40.156C152.751 40.156 152.083 40.072 151.475 39.904C150.875 39.736 150.355 39.484 149.915 39.148C149.483 38.812 149.147 38.396 148.907 37.9C148.667 37.396 148.547 36.808 148.547 36.136C148.547 35.464 148.667 34.876 148.907 34.372C149.147 33.868 149.483 33.448 149.915 33.112C150.355 32.768 150.875 32.512 151.475 32.344C152.083 32.168 152.751 32.08 153.479 32.08C154.351 32.08 155.103 32.2 155.735 32.44C156.375 32.68 156.879 33.024 157.247 33.472C157.615 33.912 157.831 34.448 157.895 35.08H156.311C156.207 34.744 156.031 34.456 155.783 34.216C155.543 33.968 155.231 33.78 154.847 33.652C154.463 33.524 154.007 33.46 153.479 33.46C152.823 33.46 152.247 33.564 151.751 33.772C151.255 33.972 150.871 34.272 150.599 34.672C150.327 35.064 150.191 35.552 150.191 36.136C150.191 36.712 150.327 37.196 150.599 37.588C150.871 37.98 151.255 38.28 151.751 38.488C152.247 38.688 152.823 38.788 153.479 38.788C154.007 38.788 154.459 38.724 154.835 38.596C155.219 38.468 155.531 38.284 155.771 38.044C156.019 37.804 156.199 37.524 156.311 37.204H157.895ZM166.714 32.236L163.306 37.552V40H161.698V37.552L158.29 32.236H160.138L163.006 36.88H162.046L164.866 32.236H166.714Z" fill="#0D0D0D" fill-opacity="0.55"/>
<defs>
<clipPath id="clip0_2090_3361">
<rect width="35.3149" height="38.9935" fill="white" transform="translate(0 2.00293)"/>
</clipPath>
</defs>
</svg>
