<svg width="206" height="43" viewBox="0 0 206 43" fill="none" xmlns="http://www.w3.org/2000/svg">
<g clip-path="url(#clip0_2090_862)">
<path d="M11.6784 26.9281L17.7241 11.2836C18.6524 9.14355 20.7358 5.46108 23.2364 7.16446L22.9335 6.44746C19.779 -0.392149 13.9444 1.28629 11.8599 7.25445L2.38086 31.9162C3.36045 33.761 9.55028 28.676 11.6784 26.9281Z" fill="white"/>
<path d="M26.8355 16.6561L23.4714 7.87445C20.9714 6.17145 19.0039 10.0746 18.0762 12.2148L20.9743 19.9865C22.9304 18.7776 24.9063 17.6548 26.8355 16.6561Z" fill="white"/>
<path d="M28.4811 20.9501C26.6689 22.4275 24.8585 23.9952 23.0801 25.6267L28.2118 39.3821C28.9081 41.5246 36.2453 41.0457 35.8505 40.1879L28.4811 20.9501Z" fill="white"/>
<path d="M12.3707 27.4727C12.2327 27.5907 11.8782 27.8927 11.3763 28.3024C11.2642 28.3983 11.151 28.4898 11.0391 28.586L11.0449 28.571C8.43101 30.6771 2.95764 34.7646 1.97805 32.9194L1.07657 35.2584C-0.630622 39.9837 5.4191 42.6806 8.37113 39.8294L8.77763 39.3814C16.0365 29.958 26.7853 19.9756 36.0928 13.9658C29.703 15.8831 19.9965 21.2201 12.3707 27.4727Z" fill="#CE8208"/>
</g>
<path d="M49.6695 21V6.58441H67.0808C68.4473 6.58441 69.6711 6.74208 70.7523 7.05742C71.8485 7.35775 72.7119 7.8683 73.3426 8.58908C73.9883 9.30986 74.3111 10.2934 74.3111 11.5398C74.3111 12.3657 74.161 13.0489 73.8606 13.5895C73.5603 14.1301 73.1474 14.5505 72.6218 14.8509C72.0962 15.1512 71.4956 15.3689 70.8198 15.5041C70.1441 15.6392 69.4384 15.7218 68.7026 15.7518L67.0583 15.4365C68.8452 15.4515 70.2192 15.5266 71.1802 15.6617C72.1563 15.7969 72.832 16.0446 73.2074 16.405C73.5979 16.7504 73.7931 17.2534 73.7931 17.9142V21H68.162V18.5899C68.162 18.1394 68.0719 17.8015 67.8917 17.5763C67.7265 17.336 67.3511 17.1709 66.7655 17.0808C66.1948 16.9907 65.3089 16.9456 64.1076 16.9456H55.3006V21H49.6695ZM55.3006 13.184H67.0808C67.5313 13.184 67.9067 13.109 68.207 12.9588C68.5224 12.8086 68.68 12.5233 68.68 12.1029C68.68 11.7125 68.5224 11.4497 68.207 11.3145C67.9067 11.1644 67.5313 11.0893 67.0808 11.0893H55.3006V13.184ZM97.6784 12.7786V6.58441H103.309V13.7922C103.309 15.0686 103.069 16.1573 102.589 17.0582C102.123 17.9442 101.47 18.68 100.629 19.2656C99.7882 19.8362 98.8196 20.2792 97.7234 20.5946C96.6272 20.9099 95.4485 21.1276 94.1871 21.2478C92.9408 21.3829 91.6719 21.4505 90.3805 21.4505C89.014 21.4505 87.6926 21.3829 86.4162 21.2478C85.1398 21.1276 83.9535 20.9099 82.8574 20.5946C81.7762 20.2792 80.8302 19.8362 80.0193 19.2656C79.2084 18.68 78.5702 17.9442 78.1047 17.0582C77.6542 16.1573 77.429 15.0686 77.429 13.7922V6.58441H83.0601V12.7786C83.0601 13.9799 83.3529 14.8959 83.9385 15.5266C84.5242 16.1573 85.3576 16.5927 86.4387 16.833C87.5349 17.0582 88.8488 17.1709 90.3805 17.1709C91.8671 17.1709 93.1585 17.0582 94.2547 16.833C95.3509 16.5927 96.1918 16.1573 96.7774 15.5266C97.3781 14.8959 97.6784 13.9799 97.6784 12.7786ZM122.682 6.58441C124.709 6.58441 126.383 6.77962 127.705 7.17005C129.026 7.56047 130.062 8.09354 130.813 8.76927C131.564 9.44501 132.089 10.2183 132.39 11.0893C132.705 11.9452 132.863 12.8462 132.863 13.7922C132.863 14.7382 132.69 15.6467 132.345 16.5177C131.999 17.3736 131.429 18.1394 130.633 18.8151C129.852 19.4909 128.808 20.0239 127.502 20.4144C126.211 20.8048 124.604 21 122.682 21H106.464V6.58441H122.682ZM112.095 16.4951H122.457C123.297 16.4951 124.011 16.4426 124.596 16.3375C125.182 16.2173 125.648 16.0446 125.993 15.8194C126.353 15.5942 126.609 15.3164 126.759 14.986C126.924 14.6406 127.006 14.2427 127.006 13.7922C127.006 13.3417 126.924 12.9513 126.759 12.6209C126.609 12.2756 126.353 11.9903 125.993 11.765C125.648 11.5398 125.182 11.3746 124.596 11.2695C124.011 11.1493 123.297 11.0893 122.457 11.0893H112.095V16.4951ZM135.786 21V6.58441H153.197C154.563 6.58441 155.787 6.74208 156.868 7.05742C157.965 7.35775 158.828 7.8683 159.459 8.58908C160.104 9.30986 160.427 10.2934 160.427 11.5398C160.427 12.3657 160.277 13.0489 159.977 13.5895C159.676 14.1301 159.263 14.5505 158.738 14.8509C158.212 15.1512 157.612 15.3689 156.936 15.5041C156.26 15.6392 155.554 15.7218 154.819 15.7518L153.174 15.4365C154.961 15.4515 156.335 15.5266 157.296 15.6617C158.272 15.7969 158.948 16.0446 159.323 16.405C159.714 16.7504 159.909 17.2534 159.909 17.9142V21H154.278V18.5899C154.278 18.1394 154.188 17.8015 154.008 17.5763C153.843 17.336 153.467 17.1709 152.882 17.0808C152.311 16.9907 151.425 16.9456 150.224 16.9456H141.417V21H135.786ZM141.417 13.184H153.197C153.647 13.184 154.023 13.109 154.323 12.9588C154.638 12.8086 154.796 12.5233 154.796 12.1029C154.796 11.7125 154.638 11.4497 154.323 11.3145C154.023 11.1644 153.647 11.0893 153.197 11.0893H141.417V13.184ZM167.239 18.8151V15.4365H182.646V18.8151H167.239ZM162.194 21L171.857 6.58441H178.118L187.871 21H181.677L173.321 8.09354H176.677L168.388 21H162.194Z" fill="white"/>
<path d="M58.0768 37.204C58.0048 37.828 57.7848 38.36 57.4168 38.8C57.0488 39.24 56.5488 39.576 55.9168 39.808C55.2848 40.04 54.5328 40.156 53.6608 40.156C52.9328 40.156 52.2648 40.072 51.6568 39.904C51.0568 39.736 50.5368 39.484 50.0968 39.148C49.6648 38.812 49.3288 38.396 49.0888 37.9C48.8488 37.396 48.7288 36.808 48.7288 36.136C48.7288 35.464 48.8488 34.876 49.0888 34.372C49.3288 33.868 49.6648 33.448 50.0968 33.112C50.5368 32.768 51.0568 32.512 51.6568 32.344C52.2648 32.168 52.9328 32.08 53.6608 32.08C54.5328 32.08 55.2848 32.2 55.9168 32.44C56.5568 32.68 57.0608 33.024 57.4288 33.472C57.7968 33.912 58.0128 34.448 58.0768 35.08H56.4928C56.3888 34.744 56.2128 34.456 55.9648 34.216C55.7248 33.968 55.4128 33.78 55.0288 33.652C54.6448 33.524 54.1888 33.46 53.6608 33.46C53.0048 33.46 52.4288 33.564 51.9328 33.772C51.4368 33.972 51.0528 34.272 50.7808 34.672C50.5088 35.064 50.3728 35.552 50.3728 36.136C50.3728 36.712 50.5088 37.196 50.7808 37.588C51.0528 37.98 51.4368 38.28 51.9328 38.488C52.4288 38.688 53.0048 38.788 53.6608 38.788C54.1888 38.788 54.6408 38.724 55.0168 38.596C55.4008 38.468 55.7128 38.284 55.9528 38.044C56.2008 37.804 56.3808 37.524 56.4928 37.204H58.0768ZM64.374 40.156C63.342 40.156 62.458 39.996 61.722 39.676C60.994 39.348 60.434 38.884 60.042 38.284C59.658 37.684 59.466 36.964 59.466 36.124C59.466 35.276 59.658 34.552 60.042 33.952C60.434 33.352 60.994 32.892 61.722 32.572C62.458 32.244 63.342 32.08 64.374 32.08C65.414 32.08 66.298 32.244 67.026 32.572C67.754 32.892 68.31 33.352 68.694 33.952C69.086 34.552 69.282 35.276 69.282 36.124C69.282 36.964 69.086 37.684 68.694 38.284C68.31 38.884 67.754 39.348 67.026 39.676C66.298 39.996 65.414 40.156 64.374 40.156ZM64.374 38.776C65.014 38.776 65.574 38.68 66.054 38.488C66.542 38.296 66.922 38.004 67.194 37.612C67.474 37.22 67.614 36.724 67.614 36.124C67.614 35.524 67.474 35.028 67.194 34.636C66.922 34.244 66.542 33.952 66.054 33.76C65.574 33.56 65.014 33.46 64.374 33.46C63.742 33.46 63.178 33.56 62.682 33.76C62.186 33.952 61.798 34.244 61.518 34.636C61.238 35.028 61.098 35.524 61.098 36.124C61.098 36.724 61.238 37.22 61.518 37.612C61.798 38.004 62.186 38.296 62.682 38.488C63.178 38.68 63.742 38.776 64.374 38.776ZM78.8319 38.416L78.3279 38.62V32.236H79.9239V40H78.3279L72.0519 33.868L72.5559 33.664V40H70.9599V32.236H72.5559L78.8319 38.416ZM81.3803 37.384H83.0003C83.0323 37.656 83.1563 37.904 83.3723 38.128C83.5963 38.344 83.8883 38.516 84.2483 38.644C84.6083 38.764 85.0123 38.824 85.4603 38.824C85.8683 38.824 86.2043 38.78 86.4683 38.692C86.7323 38.604 86.9283 38.48 87.0563 38.32C87.1843 38.16 87.2483 37.968 87.2483 37.744C87.2483 37.528 87.1683 37.364 87.0083 37.252C86.8483 37.132 86.5963 37.036 86.2523 36.964C85.9083 36.884 85.4563 36.804 84.8963 36.724C84.4563 36.66 84.0403 36.572 83.6483 36.46C83.2563 36.34 82.9083 36.188 82.6043 36.004C82.3083 35.82 82.0723 35.596 81.8963 35.332C81.7283 35.06 81.6443 34.74 81.6443 34.372C81.6443 33.916 81.7723 33.516 82.0283 33.172C82.2923 32.828 82.6803 32.56 83.1923 32.368C83.7043 32.176 84.3323 32.08 85.0763 32.08C86.1963 32.08 87.0563 32.32 87.6563 32.8C88.2643 33.272 88.5603 33.924 88.5443 34.756H86.9843C86.9523 34.284 86.7523 33.944 86.3843 33.736C86.0243 33.528 85.5683 33.424 85.0163 33.424C84.5043 33.424 84.0803 33.5 83.7443 33.652C83.4163 33.804 83.2523 34.064 83.2523 34.432C83.2523 34.576 83.2923 34.704 83.3723 34.816C83.4523 34.92 83.5883 35.012 83.7803 35.092C83.9723 35.172 84.2323 35.248 84.5603 35.32C84.8883 35.392 85.2963 35.464 85.7843 35.536C86.2403 35.6 86.6523 35.688 87.0203 35.8C87.3963 35.904 87.7163 36.044 87.9803 36.22C88.2523 36.388 88.4603 36.604 88.6043 36.868C88.7483 37.132 88.8203 37.456 88.8203 37.84C88.8203 38.312 88.6963 38.724 88.4483 39.076C88.2083 39.42 87.8323 39.688 87.3203 39.88C86.8163 40.072 86.1603 40.168 85.3523 40.168C84.7763 40.168 84.2683 40.108 83.8283 39.988C83.3883 39.86 83.0083 39.692 82.6883 39.484C82.3683 39.276 82.1083 39.048 81.9083 38.8C81.7083 38.552 81.5643 38.304 81.4763 38.056C81.3963 37.808 81.3643 37.584 81.3803 37.384ZM97.4763 36.568V32.236H99.0723V36.736C99.0723 37.248 98.9963 37.696 98.8443 38.08C98.7003 38.464 98.4923 38.788 98.2203 39.052C97.9483 39.316 97.6283 39.532 97.2603 39.7C96.9003 39.86 96.5043 39.976 96.0723 40.048C95.6483 40.12 95.2003 40.156 94.7283 40.156C94.2403 40.156 93.7763 40.12 93.3363 40.048C92.8963 39.976 92.4923 39.86 92.1243 39.7C91.7643 39.532 91.4523 39.316 91.1883 39.052C90.9243 38.788 90.7163 38.464 90.5643 38.08C90.4203 37.696 90.3483 37.248 90.3483 36.736V32.236H91.9443V36.568C91.9443 37.176 92.0643 37.64 92.3043 37.96C92.5443 38.272 92.8723 38.488 93.2883 38.608C93.7123 38.72 94.1923 38.776 94.7283 38.776C95.2483 38.776 95.7123 38.72 96.1203 38.608C96.5363 38.488 96.8643 38.272 97.1043 37.96C97.3523 37.64 97.4763 37.176 97.4763 36.568ZM102.635 32.236V38.668H107.795V40H101.039V32.236H102.635ZM107.658 32.236H115.842V33.568H107.658V32.236ZM110.958 33.4H112.554V40H110.958V33.4ZM117.35 32.236H118.946V40H117.35V32.236ZM129.005 38.416L128.501 38.62V32.236H130.097V40H128.501L122.225 33.868L122.729 33.664V40H121.133V32.236H122.729L129.005 38.416ZM136.533 40.156C135.813 40.156 135.161 40.072 134.577 39.904C134.001 39.736 133.501 39.484 133.077 39.148C132.661 38.812 132.341 38.396 132.117 37.9C131.893 37.404 131.781 36.832 131.781 36.184C131.781 35.528 131.897 34.948 132.129 34.444C132.369 33.932 132.705 33.5 133.137 33.148C133.577 32.796 134.097 32.532 134.697 32.356C135.305 32.172 135.977 32.08 136.713 32.08C137.585 32.08 138.337 32.204 138.969 32.452C139.601 32.692 140.097 33.032 140.457 33.472C140.825 33.912 141.033 34.436 141.081 35.044H139.545C139.441 34.724 139.269 34.448 139.029 34.216C138.797 33.976 138.489 33.792 138.105 33.664C137.721 33.528 137.257 33.46 136.713 33.46C136.017 33.46 135.421 33.572 134.925 33.796C134.437 34.02 134.065 34.336 133.809 34.744C133.553 35.152 133.425 35.632 133.425 36.184C133.425 36.72 133.537 37.184 133.761 37.576C133.985 37.96 134.329 38.256 134.793 38.464C135.265 38.672 135.865 38.776 136.593 38.776C137.153 38.776 137.645 38.704 138.069 38.56C138.501 38.408 138.861 38.208 139.149 37.96C139.437 37.704 139.641 37.42 139.761 37.108L140.385 36.88C140.281 37.912 139.889 38.716 139.209 39.292C138.537 39.868 137.645 40.156 136.533 40.156ZM139.977 40C139.977 39.752 139.993 39.468 140.025 39.148C140.057 38.82 140.097 38.492 140.145 38.164C140.193 37.828 140.237 37.52 140.277 37.24H136.725V36.22H141.357V40H139.977ZM147.385 38.308V36.976H152.521V38.308H147.385ZM145.453 40L149.101 32.236H150.829L154.513 40H152.773L149.581 33.004H150.349L147.181 40H145.453ZM159.839 40.156C159.119 40.156 158.467 40.072 157.883 39.904C157.307 39.736 156.807 39.484 156.383 39.148C155.967 38.812 155.647 38.396 155.423 37.9C155.199 37.404 155.087 36.832 155.087 36.184C155.087 35.528 155.203 34.948 155.435 34.444C155.675 33.932 156.011 33.5 156.443 33.148C156.883 32.796 157.403 32.532 158.003 32.356C158.611 32.172 159.283 32.08 160.019 32.08C160.891 32.08 161.643 32.204 162.275 32.452C162.907 32.692 163.403 33.032 163.763 33.472C164.131 33.912 164.339 34.436 164.387 35.044H162.851C162.747 34.724 162.575 34.448 162.335 34.216C162.103 33.976 161.795 33.792 161.411 33.664C161.027 33.528 160.563 33.46 160.019 33.46C159.323 33.46 158.727 33.572 158.231 33.796C157.743 34.02 157.371 34.336 157.115 34.744C156.859 35.152 156.731 35.632 156.731 36.184C156.731 36.72 156.843 37.184 157.067 37.576C157.291 37.96 157.635 38.256 158.099 38.464C158.571 38.672 159.171 38.776 159.899 38.776C160.459 38.776 160.951 38.704 161.375 38.56C161.807 38.408 162.167 38.208 162.455 37.96C162.743 37.704 162.947 37.42 163.067 37.108L163.691 36.88C163.587 37.912 163.195 38.716 162.515 39.292C161.843 39.868 160.951 40.156 159.839 40.156ZM163.283 40C163.283 39.752 163.299 39.468 163.331 39.148C163.363 38.82 163.403 38.492 163.451 38.164C163.499 37.828 163.543 37.52 163.583 37.24H160.031V36.22H164.663V40H163.283ZM168.059 36.76V38.668H174.047V40H166.463V32.236H174.035V33.568H168.059V35.5H172.955V36.76H168.059ZM183.678 38.416L183.174 38.62V32.236H184.77V40H183.174L176.898 33.868L177.402 33.664V40H175.806V32.236H177.402L183.678 38.416ZM195.803 37.204C195.731 37.828 195.511 38.36 195.143 38.8C194.775 39.24 194.275 39.576 193.643 39.808C193.011 40.04 192.259 40.156 191.387 40.156C190.659 40.156 189.991 40.072 189.383 39.904C188.783 39.736 188.263 39.484 187.823 39.148C187.391 38.812 187.055 38.396 186.815 37.9C186.575 37.396 186.455 36.808 186.455 36.136C186.455 35.464 186.575 34.876 186.815 34.372C187.055 33.868 187.391 33.448 187.823 33.112C188.263 32.768 188.783 32.512 189.383 32.344C189.991 32.168 190.659 32.08 191.387 32.08C192.259 32.08 193.011 32.2 193.643 32.44C194.283 32.68 194.787 33.024 195.155 33.472C195.523 33.912 195.739 34.448 195.803 35.08H194.219C194.115 34.744 193.939 34.456 193.691 34.216C193.451 33.968 193.139 33.78 192.755 33.652C192.371 33.524 191.915 33.46 191.387 33.46C190.731 33.46 190.155 33.564 189.659 33.772C189.163 33.972 188.779 34.272 188.507 34.672C188.235 35.064 188.099 35.552 188.099 36.136C188.099 36.712 188.235 37.196 188.507 37.588C188.779 37.98 189.163 38.28 189.659 38.488C190.155 38.688 190.731 38.788 191.387 38.788C191.915 38.788 192.367 38.724 192.743 38.596C193.127 38.468 193.439 38.284 193.679 38.044C193.927 37.804 194.107 37.524 194.219 37.204H195.803ZM204.622 32.236L201.214 37.552V40H199.606V37.552L196.198 32.236H198.046L200.914 36.88H199.954L202.774 32.236H204.622Z" fill="white"/>
<defs>
<clipPath id="clip0_2090_862">
<rect width="35.3149" height="38.9935" fill="white" transform="translate(0.77832 2.00323)"/>
</clipPath>
</defs>
</svg>
