<svg width="40" height="40" viewBox="0 0 40 40" fill="none" xmlns="http://www.w3.org/2000/svg">
<g clip-path="url(#clip0_555_3746)">
<mask id="mask0_555_3746" style="mask-type:luminance" maskUnits="userSpaceOnUse" x="0" y="0" width="40" height="40">
<path d="M40 0H0V40H40V0Z" fill="white"/>
</mask>
<g mask="url(#mask0_555_3746)">
<path opacity="0.4" d="M36.6668 13.0166V23.3333H29.8668C28.7502 23.3333 27.4335 22.5333 26.9168 21.5499L25.1835 18.2666C24.7168 17.3833 24.0502 17.4333 23.6835 18.3499L19.8502 28.0333C19.4335 29.1166 18.7335 29.1166 18.3002 28.0333L16.4002 23.2333C15.9502 22.0666 14.5502 21.1166 13.3002 21.1166L3.3335 21.1666V13.0166C3.3335 6.94992 6.95016 3.33325 13.0168 3.33325H26.9835C33.0502 3.33325 36.6668 6.94992 36.6668 13.0166Z" fill="#6A52E0"/>
<path d="M36.6668 26.9842V23.3342H29.8668C28.7502 23.3342 27.4335 22.5342 26.9168 21.5509L25.1835 18.2676C24.7168 17.3842 24.0502 17.4342 23.6835 18.3509L19.8502 28.0342C19.4335 29.1176 18.7335 29.1176 18.3002 28.0342L16.4002 23.2342C15.9502 22.0676 14.5502 21.1176 13.3002 21.1176L3.3335 21.1676V26.9842C3.3335 32.9509 6.8335 36.5509 12.7168 36.6509C12.9002 36.6676 13.1002 36.6676 13.2835 36.6676H26.6168C26.8668 36.6676 27.1168 36.6676 27.3502 36.6509C33.2002 36.5176 36.6668 32.9342 36.6668 26.9842Z" fill="#6A52E0"/>
<path d="M3.33369 21.1653V26.6819C3.30036 26.1486 3.28369 25.582 3.28369 24.9986V21.1653H3.33369Z" fill="#6A52E0"/>
</g>
</g>
<defs>
<clipPath id="clip0_555_3746">
<rect width="40" height="40" fill="white"/>
</clipPath>
</defs>
</svg>
