<svg width="40" height="40" viewBox="0 0 40 40" fill="none" xmlns="http://www.w3.org/2000/svg">
<g clip-path="url(#clip0_555_3742)">
<mask id="mask0_555_3742" style="mask-type:luminance" maskUnits="userSpaceOnUse" x="0" y="0" width="40" height="40">
<path d="M40 0H0V40H40V0Z" fill="white"/>
</mask>
<g mask="url(#mask0_555_3742)">
<path opacity="0.4" d="M34.6338 23.635V28.535C34.6338 30.3683 33.1338 31.8683 31.3005 31.8683H8.70052C6.86719 31.8683 5.36719 30.3683 5.36719 28.535V23.635C5.36719 15.6016 11.8672 9.10159 19.9005 9.10159H20.1005C28.1338 9.08493 34.6338 15.6016 34.6338 23.635Z" fill="#6A52E0"/>
<path d="M21.25 4.21558V9.14891C20.8667 9.11558 20.4833 9.09891 20.1 9.09891H19.9C19.5167 9.09891 19.1333 9.11558 18.75 9.14891V4.21558C18.75 3.53224 19.3167 2.96558 20 2.96558C20.6833 2.96558 21.25 3.53224 21.25 4.21558Z" fill="#6A52E0"/>
<path d="M25.534 31.8491C25.334 34.7491 22.934 37.0325 20.0007 37.0325C17.0673 37.0325 14.6506 34.7491 14.4673 31.8491H25.534Z" fill="#6A52E0"/>
</g>
</g>
<defs>
<clipPath id="clip0_555_3742">
<rect width="40" height="40" fill="white"/>
</clipPath>
</defs>
</svg>
