<svg width="40" height="40" viewBox="0 0 40 40" fill="none" xmlns="http://www.w3.org/2000/svg">
<mask id="mask0_4001_1991" style="mask-type:luminance" maskUnits="userSpaceOnUse" x="0" y="0" width="40" height="40">
<path d="M40 0H0V40H40V0Z" fill="white"/>
</mask>
<g mask="url(#mask0_4001_1991)">
<path opacity="0.4" d="M29.1335 17.5833C28.4335 18.2666 28.0335 19.2499 28.1335 20.2999C28.2835 22.0999 29.9335 23.4166 31.7335 23.4166H35.0002V25.8333C35.0002 30.8333 31.6668 34.1666 26.6668 34.1666H11.6668C6.66683 34.1666 3.3335 30.8333 3.3335 25.8333V14.1666C3.3335 9.63325 6.06683 6.46659 10.3168 5.93325C10.7502 5.86659 11.2002 5.83325 11.6668 5.83325H26.6668C27.1002 5.83325 27.5168 5.8499 27.9168 5.91657C32.2168 6.41657 35.0002 9.59992 35.0002 14.1666V16.5833H31.5335C30.6002 16.5833 29.7502 16.9499 29.1335 17.5833Z" fill="#6A52E0"/>
<path d="M36.6672 18.2835V21.7168C36.6672 22.6335 35.9339 23.3835 35.0005 23.4168H31.7339C29.9339 23.4168 28.2839 22.1002 28.1339 20.3002C28.0339 19.2502 28.4339 18.2668 29.1339 17.5835C29.7505 16.9502 30.6005 16.5835 31.5339 16.5835H35.0005C35.9339 16.6168 36.6672 17.3668 36.6672 18.2835Z" fill="#6A52E0"/>
</g>
</svg>
