<svg width="40" height="40" viewBox="0 0 40 40" fill="none" xmlns="http://www.w3.org/2000/svg">
<g clip-path="url(#clip0_555_3739)">
<mask id="mask0_555_3739" style="mask-type:luminance" maskUnits="userSpaceOnUse" x="0" y="0" width="40" height="40">
<path d="M40 0H0V40H40V0Z" fill="white"/>
</mask>
<g mask="url(#mask0_555_3739)">
<path d="M35.1502 11.6326C33.7335 10.0659 31.3668 9.28255 27.9335 9.28255H27.5335V9.21589C27.5335 6.41589 27.5335 2.94922 21.2668 2.94922H18.7335C12.4669 2.94922 12.4669 6.43255 12.4669 9.21589V9.29922H12.0669C8.61689 9.29922 6.26689 10.0826 4.85022 11.6492C3.20022 13.4826 3.25023 15.9492 3.41689 17.6325L3.43356 17.7492L3.60022 19.4992C3.61689 19.5158 3.65023 19.5492 3.68356 19.5658C4.23356 19.9325 4.80022 20.2992 5.40022 20.6325C5.63356 20.7825 5.88356 20.9158 6.13356 21.0492C8.98356 22.6158 12.1169 23.6658 15.3002 24.1825C15.4502 25.7492 16.1336 27.5825 19.7835 27.5825C23.4335 27.5825 24.1502 25.7658 24.2668 24.1492C27.6668 23.5992 30.9502 22.4158 33.9168 20.6825C34.0168 20.6325 34.0835 20.5825 34.1668 20.5325C34.9335 20.0992 35.6502 19.6325 36.3502 19.1158C36.3835 19.0992 36.4168 19.0658 36.4335 19.0325L36.5002 18.4325L36.5835 17.6492C36.6002 17.5492 36.6002 17.4658 36.6168 17.3492C36.7502 15.6659 36.7168 13.3659 35.1502 11.6326ZM21.8168 23.0492C21.8168 24.8158 21.8168 25.0825 19.7668 25.0825C17.7168 25.0825 17.7168 24.7658 17.7168 23.0658V20.9658H21.8168V23.0492ZM14.8502 9.28255V9.21589C14.8502 6.38255 14.8502 5.33255 18.7335 5.33255H21.2668C25.1502 5.33255 25.1502 6.39922 25.1502 9.21589V9.29922H14.8502V9.28255Z" fill="#6A52E0"/>
<path opacity="0.4" d="M34.1673 20.5007C34.084 20.5507 34.0007 20.6007 33.9173 20.6507C30.9507 22.3841 27.6673 23.5507 24.2673 24.1174C24.134 25.7174 23.434 27.5507 19.784 27.5507C16.1339 27.5507 15.4339 25.7341 15.3006 24.1507C12.1173 23.6507 8.98392 22.6007 6.13392 21.0174C5.88392 20.8841 5.63392 20.7507 5.40059 20.6007C4.80059 20.2674 4.23392 19.9007 3.68392 19.5341C3.65059 19.5174 3.61725 19.4841 3.60059 19.4674L4.61725 30.3174C4.96725 33.6341 6.33392 37.0507 13.6673 37.0507H26.3673C33.7007 37.0507 35.0673 33.6341 35.4173 30.3007L36.4673 19.0007C36.4507 19.0341 36.4173 19.0674 36.384 19.0841C35.6673 19.6007 34.934 20.0841 34.1673 20.5007Z" fill="#6A52E0"/>
</g>
</g>
<defs>
<clipPath id="clip0_555_3739">
<rect width="40" height="40" fill="white"/>
</clipPath>
</defs>
</svg>
