<svg width="20" height="21" viewBox="0 0 20 21" fill="none" xmlns="http://www.w3.org/2000/svg">
<path d="M14.19 0.277832H5.81C2.17 0.277832 0 2.44783 0 6.08783V14.4578C0 18.1078 2.17 20.2778 5.81 20.2778H14.18C17.82 20.2778 19.99 18.1078 19.99 14.4678V6.08783C20 2.44783 17.83 0.277832 14.19 0.277832ZM14.78 7.97783L9.11 13.6478C8.97 13.7878 8.78 13.8678 8.58 13.8678C8.38 13.8678 8.19 13.7878 8.05 13.6478L5.22 10.8178C4.93 10.5278 4.93 10.0478 5.22 9.75783C5.51 9.46783 5.99 9.46783 6.28 9.75783L8.58 12.0578L13.72 6.91783C14.01 6.62783 14.49 6.62783 14.78 6.91783C15.07 7.20783 15.07 7.67783 14.78 7.97783Z" fill="#6A52E0"/>
</svg>
