<svg width="196" height="43" viewBox="0 0 196 43" fill="none" xmlns="http://www.w3.org/2000/svg">
<g clip-path="url(#clip0_2090_3002)">
<path d="M10.9 26.9277L16.9457 11.2833C17.8741 9.14319 19.9575 5.46072 22.4581 7.1641L22.1552 6.4471C19.0007 -0.392515 13.1661 1.28592 11.0816 7.25408L1.60254 31.9159C2.58213 33.7606 8.77196 28.6756 10.9 26.9277Z" fill="white"/>
<path d="M26.0577 16.6554L22.6936 7.87378C20.1936 6.17078 18.2261 10.0739 17.2983 12.2142L20.1964 19.9858C22.1526 18.7769 24.1284 17.6541 26.0577 16.6554Z" fill="white"/>
<path d="M27.7023 20.9502C25.8901 22.4276 24.0797 23.9953 22.3013 25.6267L27.433 39.3821C28.1293 41.5247 35.4665 41.0458 35.0717 40.1879L27.7023 20.9502Z" fill="white"/>
<path d="M11.5924 27.4727C11.4544 27.5907 11.0999 27.8927 10.598 28.3024C10.4859 28.3983 10.3727 28.4898 10.2608 28.586L10.2665 28.571C7.65269 30.6771 2.17932 34.7646 1.19973 32.9194L0.298246 35.2584C-1.40894 39.9837 4.64078 42.6806 7.59281 39.8294L7.99931 39.3814C15.2582 29.958 26.007 19.9756 35.3145 13.9658C28.9247 15.8831 19.2182 21.2201 11.5924 27.4727Z" fill="#DCFD7D"/>
</g>
<path d="M48.8916 21V6.58441H66.303C67.6695 6.58441 68.8933 6.74208 69.9744 7.05742C71.0706 7.35775 71.9341 7.8683 72.5647 8.58908C73.2104 9.30986 73.5333 10.2934 73.5333 11.5398C73.5333 12.3657 73.3831 13.0489 73.0828 13.5895C72.7825 14.1301 72.3695 14.5505 71.844 14.8509C71.3184 15.1512 70.7177 15.3689 70.042 15.5041C69.3663 15.6392 68.6605 15.7218 67.9247 15.7518L66.2804 15.4365C68.0674 15.4515 69.4414 15.5266 70.4024 15.6617C71.3785 15.7969 72.0542 16.0446 72.4296 16.405C72.82 16.7504 73.0152 17.2534 73.0152 17.9142V21H67.3841V18.5899C67.3841 18.1394 67.294 17.8015 67.1139 17.5763C66.9487 17.336 66.5733 17.1709 65.9876 17.0808C65.417 16.9907 64.5311 16.9456 63.3298 16.9456H54.5227V21H48.8916ZM54.5227 13.184H66.303C66.7535 13.184 67.1289 13.109 67.4292 12.9588C67.7445 12.8086 67.9022 12.5233 67.9022 12.1029C67.9022 11.7125 67.7445 11.4497 67.4292 11.3145C67.1289 11.1644 66.7535 11.0893 66.303 11.0893H54.5227V13.184ZM96.9006 12.7786V6.58441H102.532V13.7922C102.532 15.0686 102.291 16.1573 101.811 17.0582C101.345 17.9442 100.692 18.68 99.8512 19.2656C99.0103 19.8362 98.0418 20.2792 96.9456 20.5946C95.8494 20.9099 94.6706 21.1276 93.4093 21.2478C92.1629 21.3829 90.8941 21.4505 89.6027 21.4505C88.2362 21.4505 86.9148 21.3829 85.6384 21.2478C84.362 21.1276 83.1757 20.9099 82.0795 20.5946C80.9984 20.2792 80.0523 19.8362 79.2415 19.2656C78.4306 18.68 77.7924 17.9442 77.3269 17.0582C76.8764 16.1573 76.6512 15.0686 76.6512 13.7922V6.58441H82.2822V12.7786C82.2822 13.9799 82.5751 14.8959 83.1607 15.5266C83.7463 16.1573 84.5797 16.5927 85.6609 16.833C86.7571 17.0582 88.071 17.1709 89.6027 17.1709C91.0893 17.1709 92.3807 17.0582 93.4768 16.833C94.573 16.5927 95.4139 16.1573 95.9996 15.5266C96.6002 14.8959 96.9006 13.9799 96.9006 12.7786ZM121.904 6.58441C123.931 6.58441 125.605 6.77962 126.927 7.17005C128.248 7.56047 129.284 8.09354 130.035 8.76927C130.786 9.44501 131.312 10.2183 131.612 11.0893C131.927 11.9452 132.085 12.8462 132.085 13.7922C132.085 14.7382 131.912 15.6467 131.567 16.5177C131.222 17.3736 130.651 18.1394 129.855 18.8151C129.074 19.4909 128.031 20.0239 126.724 20.4144C125.433 20.8048 123.826 21 121.904 21H105.686V6.58441H121.904ZM111.318 16.4951H121.679C122.52 16.4951 123.233 16.4426 123.819 16.3375C124.404 16.2173 124.87 16.0446 125.215 15.8194C125.575 15.5942 125.831 15.3164 125.981 14.986C126.146 14.6406 126.229 14.2427 126.229 13.7922C126.229 13.3417 126.146 12.9513 125.981 12.6209C125.831 12.2756 125.575 11.9903 125.215 11.765C124.87 11.5398 124.404 11.3746 123.819 11.2695C123.233 11.1493 122.52 11.0893 121.679 11.0893H111.318V16.4951ZM135.008 21V6.58441H152.419C153.786 6.58441 155.009 6.74208 156.091 7.05742C157.187 7.35775 158.05 7.8683 158.681 8.58908C159.327 9.30986 159.649 10.2934 159.649 11.5398C159.649 12.3657 159.499 13.0489 159.199 13.5895C158.899 14.1301 158.486 14.5505 157.96 14.8509C157.434 15.1512 156.834 15.3689 156.158 15.5041C155.482 15.6392 154.777 15.7218 154.041 15.7518L152.397 15.4365C154.183 15.4515 155.557 15.5266 156.518 15.6617C157.495 15.7969 158.17 16.0446 158.546 16.405C158.936 16.7504 159.131 17.2534 159.131 17.9142V21H153.5V18.5899C153.5 18.1394 153.41 17.8015 153.23 17.5763C153.065 17.336 152.689 17.1709 152.104 17.0808C151.533 16.9907 150.647 16.9456 149.446 16.9456H140.639V21H135.008ZM140.639 13.184H152.419C152.87 13.184 153.245 13.109 153.545 12.9588C153.861 12.8086 154.018 12.5233 154.018 12.1029C154.018 11.7125 153.861 11.4497 153.545 11.3145C153.245 11.1644 152.87 11.0893 152.419 11.0893H140.639V13.184ZM166.461 18.8151V15.4365H181.868V18.8151H166.461ZM161.416 21L171.079 6.58441H177.34L187.094 21H180.899L172.543 8.09354H175.899L167.61 21H161.416Z" fill="white"/>
<path d="M52.6789 32.236C53.5509 32.236 54.2789 32.34 54.8629 32.548C55.4469 32.756 55.9109 33.04 56.2549 33.4C56.6069 33.752 56.8549 34.16 56.9989 34.624C57.1509 35.088 57.2269 35.576 57.2269 36.088C57.2269 36.6 57.1429 37.092 56.9749 37.564C56.8149 38.036 56.5549 38.456 56.1949 38.824C55.8429 39.184 55.3749 39.472 54.7909 39.688C54.2149 39.896 53.5109 40 52.6789 40H48.2389V32.236H52.6789ZM49.8349 38.632H52.6429C53.2189 38.632 53.6949 38.564 54.0709 38.428C54.4549 38.284 54.7589 38.092 54.9829 37.852C55.2069 37.612 55.3669 37.34 55.4629 37.036C55.5589 36.732 55.6069 36.416 55.6069 36.088C55.6069 35.76 55.5589 35.448 55.4629 35.152C55.3669 34.856 55.2069 34.592 54.9829 34.36C54.7589 34.128 54.4549 33.944 54.0709 33.808C53.6949 33.672 53.2189 33.604 52.6429 33.604H49.8349V38.632ZM59.1338 32.236H60.7298V40H59.1338V32.236ZM67.3804 40.156C66.6604 40.156 66.0084 40.072 65.4244 39.904C64.8484 39.736 64.3484 39.484 63.9244 39.148C63.5084 38.812 63.1884 38.396 62.9644 37.9C62.7404 37.404 62.6284 36.832 62.6284 36.184C62.6284 35.528 62.7444 34.948 62.9764 34.444C63.2164 33.932 63.5524 33.5 63.9844 33.148C64.4244 32.796 64.9444 32.532 65.5444 32.356C66.1524 32.172 66.8244 32.08 67.5604 32.08C68.4324 32.08 69.1844 32.204 69.8164 32.452C70.4484 32.692 70.9444 33.032 71.3044 33.472C71.6724 33.912 71.8804 34.436 71.9284 35.044H70.3924C70.2884 34.724 70.1164 34.448 69.8764 34.216C69.6444 33.976 69.3364 33.792 68.9524 33.664C68.5684 33.528 68.1044 33.46 67.5604 33.46C66.8644 33.46 66.2684 33.572 65.7724 33.796C65.2844 34.02 64.9124 34.336 64.6564 34.744C64.4004 35.152 64.2724 35.632 64.2724 36.184C64.2724 36.72 64.3844 37.184 64.6084 37.576C64.8324 37.96 65.1764 38.256 65.6404 38.464C66.1124 38.672 66.7124 38.776 67.4404 38.776C68.0004 38.776 68.4924 38.704 68.9164 38.56C69.3484 38.408 69.7084 38.208 69.9964 37.96C70.2844 37.704 70.4884 37.42 70.6084 37.108L71.2324 36.88C71.1284 37.912 70.7364 38.716 70.0564 39.292C69.3844 39.868 68.4924 40.156 67.3804 40.156ZM70.8244 40C70.8244 39.752 70.8404 39.468 70.8724 39.148C70.9044 38.82 70.9444 38.492 70.9924 38.164C71.0404 37.828 71.0844 37.52 71.1244 37.24H67.5724V36.22H72.2044V40H70.8244ZM74.2332 32.236H75.8292V40H74.2332V32.236ZM77.3318 32.236H85.5158V33.568H77.3318V32.236ZM80.6318 33.4H82.2278V40H80.6318V33.4ZM87.5158 38.308V36.976H92.6518V38.308H87.5158ZM85.5838 40L89.2318 32.236H90.9598L94.6438 40H92.9038L89.7118 33.004H90.4798L87.3118 40H85.5838ZM97.4885 32.236V38.668H102.649V40H95.8925V32.236H97.4885ZM108.477 38.308V36.976H113.613V38.308H108.477ZM106.545 40L110.193 32.236H111.921L115.605 40H113.865L110.673 33.004H111.441L108.273 40H106.545ZM120.931 40.156C120.211 40.156 119.559 40.072 118.975 39.904C118.399 39.736 117.899 39.484 117.475 39.148C117.059 38.812 116.739 38.396 116.515 37.9C116.291 37.404 116.179 36.832 116.179 36.184C116.179 35.528 116.295 34.948 116.527 34.444C116.767 33.932 117.103 33.5 117.535 33.148C117.975 32.796 118.495 32.532 119.095 32.356C119.703 32.172 120.375 32.08 121.111 32.08C121.983 32.08 122.735 32.204 123.367 32.452C123.999 32.692 124.495 33.032 124.855 33.472C125.223 33.912 125.431 34.436 125.479 35.044H123.943C123.839 34.724 123.667 34.448 123.427 34.216C123.195 33.976 122.887 33.792 122.503 33.664C122.119 33.528 121.655 33.46 121.111 33.46C120.415 33.46 119.819 33.572 119.323 33.796C118.835 34.02 118.463 34.336 118.207 34.744C117.951 35.152 117.823 35.632 117.823 36.184C117.823 36.72 117.935 37.184 118.159 37.576C118.383 37.96 118.727 38.256 119.191 38.464C119.663 38.672 120.263 38.776 120.991 38.776C121.551 38.776 122.043 38.704 122.467 38.56C122.899 38.408 123.259 38.208 123.547 37.96C123.835 37.704 124.039 37.42 124.159 37.108L124.783 36.88C124.679 37.912 124.287 38.716 123.607 39.292C122.935 39.868 122.043 40.156 120.931 40.156ZM124.375 40C124.375 39.752 124.391 39.468 124.423 39.148C124.455 38.82 124.495 38.492 124.543 38.164C124.591 37.828 124.635 37.52 124.675 37.24H121.123V36.22H125.755V40H124.375ZM129.152 36.76V38.668H135.14V40H127.556V32.236H135.128V33.568H129.152V35.5H134.048V36.76H129.152ZM144.771 38.416L144.267 38.62V32.236H145.863V40H144.267L137.991 33.868L138.495 33.664V40H136.899V32.236H138.495L144.771 38.416ZM156.895 37.204C156.823 37.828 156.603 38.36 156.235 38.8C155.867 39.24 155.367 39.576 154.735 39.808C154.103 40.04 153.351 40.156 152.479 40.156C151.751 40.156 151.083 40.072 150.475 39.904C149.875 39.736 149.355 39.484 148.915 39.148C148.483 38.812 148.147 38.396 147.907 37.9C147.667 37.396 147.547 36.808 147.547 36.136C147.547 35.464 147.667 34.876 147.907 34.372C148.147 33.868 148.483 33.448 148.915 33.112C149.355 32.768 149.875 32.512 150.475 32.344C151.083 32.168 151.751 32.08 152.479 32.08C153.351 32.08 154.103 32.2 154.735 32.44C155.375 32.68 155.879 33.024 156.247 33.472C156.615 33.912 156.831 34.448 156.895 35.08H155.311C155.207 34.744 155.031 34.456 154.783 34.216C154.543 33.968 154.231 33.78 153.847 33.652C153.463 33.524 153.007 33.46 152.479 33.46C151.823 33.46 151.247 33.564 150.751 33.772C150.255 33.972 149.871 34.272 149.599 34.672C149.327 35.064 149.191 35.552 149.191 36.136C149.191 36.712 149.327 37.196 149.599 37.588C149.871 37.98 150.255 38.28 150.751 38.488C151.247 38.688 151.823 38.788 152.479 38.788C153.007 38.788 153.459 38.724 153.835 38.596C154.219 38.468 154.531 38.284 154.771 38.044C155.019 37.804 155.199 37.524 155.311 37.204H156.895ZM165.714 32.236L162.306 37.552V40H160.698V37.552L157.29 32.236H159.138L162.006 36.88H161.046L163.866 32.236H165.714Z" fill="white" fill-opacity="0.55"/>
<defs>
<clipPath id="clip0_2090_3002">
<rect width="35.3149" height="38.9935" fill="white" transform="translate(0 2.00293)"/>
</clipPath>
</defs>
</svg>
