<svg width="205" height="43" viewBox="0 0 205 43" fill="none" xmlns="http://www.w3.org/2000/svg">
<g clip-path="url(#clip0_2090_2591)">
<path d="M10.9 26.9281L16.9457 11.2836C17.8741 9.14355 19.9575 5.46108 22.4581 7.16446L22.1552 6.44746C19.0007 -0.392149 13.1661 1.28629 11.0816 7.25445L1.60254 31.9162C2.58213 33.761 8.77196 28.676 10.9 26.9281Z" fill="white"/>
<path d="M26.0577 16.6561L22.6936 7.87445C20.1936 6.17145 18.2261 10.0746 17.2983 12.2148L20.1964 19.9865C22.1526 18.7776 24.1284 17.6548 26.0577 16.6561Z" fill="white"/>
<path d="M27.7023 20.9501C25.8901 22.4275 24.0797 23.9952 22.3013 25.6267L27.433 39.3821C28.1293 41.5246 35.4665 41.0457 35.0717 40.1879L27.7023 20.9501Z" fill="white"/>
<path d="M11.5924 27.4727C11.4544 27.5907 11.0999 27.8927 10.598 28.3024C10.4859 28.3983 10.3727 28.4898 10.2608 28.586L10.2665 28.571C7.65269 30.6771 2.17932 34.7646 1.19973 32.9194L0.298246 35.2584C-1.40894 39.9837 4.64078 42.6806 7.59281 39.8294L7.99931 39.3814C15.2582 29.958 26.007 19.9756 35.3145 13.9658C28.9247 15.8831 19.2182 21.2201 11.5924 27.4727Z" fill="#DCFD7D"/>
</g>
<path d="M48.8916 21V6.58441H66.303C67.6695 6.58441 68.8933 6.74208 69.9744 7.05742C71.0706 7.35775 71.9341 7.8683 72.5647 8.58908C73.2104 9.30986 73.5333 10.2934 73.5333 11.5398C73.5333 12.3657 73.3831 13.0489 73.0828 13.5895C72.7825 14.1301 72.3695 14.5505 71.844 14.8509C71.3184 15.1512 70.7177 15.3689 70.042 15.5041C69.3663 15.6392 68.6605 15.7218 67.9247 15.7518L66.2804 15.4365C68.0674 15.4515 69.4414 15.5266 70.4024 15.6617C71.3785 15.7969 72.0542 16.0446 72.4296 16.405C72.82 16.7504 73.0152 17.2534 73.0152 17.9142V21H67.3841V18.5899C67.3841 18.1394 67.294 17.8015 67.1139 17.5763C66.9487 17.336 66.5733 17.1709 65.9876 17.0808C65.417 16.9907 64.5311 16.9456 63.3298 16.9456H54.5227V21H48.8916ZM54.5227 13.184H66.303C66.7535 13.184 67.1289 13.109 67.4292 12.9588C67.7445 12.8086 67.9022 12.5233 67.9022 12.1029C67.9022 11.7125 67.7445 11.4497 67.4292 11.3145C67.1289 11.1644 66.7535 11.0893 66.303 11.0893H54.5227V13.184ZM96.9006 12.7786V6.58441H102.532V13.7922C102.532 15.0686 102.291 16.1573 101.811 17.0582C101.345 17.9442 100.692 18.68 99.8512 19.2656C99.0103 19.8362 98.0418 20.2792 96.9456 20.5946C95.8494 20.9099 94.6706 21.1276 93.4093 21.2478C92.1629 21.3829 90.8941 21.4505 89.6027 21.4505C88.2362 21.4505 86.9148 21.3829 85.6384 21.2478C84.362 21.1276 83.1757 20.9099 82.0795 20.5946C80.9984 20.2792 80.0523 19.8362 79.2415 19.2656C78.4306 18.68 77.7924 17.9442 77.3269 17.0582C76.8764 16.1573 76.6512 15.0686 76.6512 13.7922V6.58441H82.2822V12.7786C82.2822 13.9799 82.5751 14.8959 83.1607 15.5266C83.7463 16.1573 84.5797 16.5927 85.6609 16.833C86.7571 17.0582 88.071 17.1709 89.6027 17.1709C91.0893 17.1709 92.3807 17.0582 93.4768 16.833C94.573 16.5927 95.4139 16.1573 95.9996 15.5266C96.6002 14.8959 96.9006 13.9799 96.9006 12.7786ZM121.904 6.58441C123.931 6.58441 125.605 6.77962 126.927 7.17005C128.248 7.56047 129.284 8.09354 130.035 8.76927C130.786 9.44501 131.312 10.2183 131.612 11.0893C131.927 11.9452 132.085 12.8462 132.085 13.7922C132.085 14.7382 131.912 15.6467 131.567 16.5177C131.222 17.3736 130.651 18.1394 129.855 18.8151C129.074 19.4909 128.031 20.0239 126.724 20.4144C125.433 20.8048 123.826 21 121.904 21H105.686V6.58441H121.904ZM111.318 16.4951H121.679C122.52 16.4951 123.233 16.4426 123.819 16.3375C124.404 16.2173 124.87 16.0446 125.215 15.8194C125.575 15.5942 125.831 15.3164 125.981 14.986C126.146 14.6406 126.229 14.2427 126.229 13.7922C126.229 13.3417 126.146 12.9513 125.981 12.6209C125.831 12.2756 125.575 11.9903 125.215 11.765C124.87 11.5398 124.404 11.3746 123.819 11.2695C123.233 11.1493 122.52 11.0893 121.679 11.0893H111.318V16.4951ZM135.008 21V6.58441H152.419C153.786 6.58441 155.009 6.74208 156.091 7.05742C157.187 7.35775 158.05 7.8683 158.681 8.58908C159.327 9.30986 159.649 10.2934 159.649 11.5398C159.649 12.3657 159.499 13.0489 159.199 13.5895C158.899 14.1301 158.486 14.5505 157.96 14.8509C157.434 15.1512 156.834 15.3689 156.158 15.5041C155.482 15.6392 154.777 15.7218 154.041 15.7518L152.397 15.4365C154.183 15.4515 155.557 15.5266 156.518 15.6617C157.495 15.7969 158.17 16.0446 158.546 16.405C158.936 16.7504 159.131 17.2534 159.131 17.9142V21H153.5V18.5899C153.5 18.1394 153.41 17.8015 153.23 17.5763C153.065 17.336 152.689 17.1709 152.104 17.0808C151.533 16.9907 150.647 16.9456 149.446 16.9456H140.639V21H135.008ZM140.639 13.184H152.419C152.87 13.184 153.245 13.109 153.545 12.9588C153.861 12.8086 154.018 12.5233 154.018 12.1029C154.018 11.7125 153.861 11.4497 153.545 11.3145C153.245 11.1644 152.87 11.0893 152.419 11.0893H140.639V13.184ZM166.461 18.8151V15.4365H181.868V18.8151H166.461ZM161.416 21L171.079 6.58441H177.34L187.094 21H180.899L172.543 8.09354H175.899L167.61 21H161.416Z" fill="white"/>
<path d="M57.2989 37.204C57.2269 37.828 57.0069 38.36 56.6389 38.8C56.2709 39.24 55.7709 39.576 55.1389 39.808C54.5069 40.04 53.7549 40.156 52.8829 40.156C52.1549 40.156 51.4869 40.072 50.8789 39.904C50.2789 39.736 49.7589 39.484 49.3189 39.148C48.8869 38.812 48.5509 38.396 48.3109 37.9C48.0709 37.396 47.9509 36.808 47.9509 36.136C47.9509 35.464 48.0709 34.876 48.3109 34.372C48.5509 33.868 48.8869 33.448 49.3189 33.112C49.7589 32.768 50.2789 32.512 50.8789 32.344C51.4869 32.168 52.1549 32.08 52.8829 32.08C53.7549 32.08 54.5069 32.2 55.1389 32.44C55.7789 32.68 56.2829 33.024 56.6509 33.472C57.0189 33.912 57.2349 34.448 57.2989 35.08H55.7149C55.6109 34.744 55.4349 34.456 55.1869 34.216C54.9469 33.968 54.6349 33.78 54.2509 33.652C53.8669 33.524 53.4109 33.46 52.8829 33.46C52.2269 33.46 51.6509 33.564 51.1549 33.772C50.6589 33.972 50.2749 34.272 50.0029 34.672C49.7309 35.064 49.5949 35.552 49.5949 36.136C49.5949 36.712 49.7309 37.196 50.0029 37.588C50.2749 37.98 50.6589 38.28 51.1549 38.488C51.6509 38.688 52.2269 38.788 52.8829 38.788C53.4109 38.788 53.8629 38.724 54.2389 38.596C54.6229 38.468 54.9349 38.284 55.1749 38.044C55.4229 37.804 55.6029 37.524 55.7149 37.204H57.2989ZM63.5961 40.156C62.5641 40.156 61.6801 39.996 60.9441 39.676C60.2161 39.348 59.6561 38.884 59.2641 38.284C58.8801 37.684 58.6881 36.964 58.6881 36.124C58.6881 35.276 58.8801 34.552 59.2641 33.952C59.6561 33.352 60.2161 32.892 60.9441 32.572C61.6801 32.244 62.5641 32.08 63.5961 32.08C64.6361 32.08 65.5201 32.244 66.2481 32.572C66.9761 32.892 67.5321 33.352 67.9161 33.952C68.3081 34.552 68.5041 35.276 68.5041 36.124C68.5041 36.964 68.3081 37.684 67.9161 38.284C67.5321 38.884 66.9761 39.348 66.2481 39.676C65.5201 39.996 64.6361 40.156 63.5961 40.156ZM63.5961 38.776C64.2361 38.776 64.7961 38.68 65.2761 38.488C65.7641 38.296 66.1441 38.004 66.4161 37.612C66.6961 37.22 66.8361 36.724 66.8361 36.124C66.8361 35.524 66.6961 35.028 66.4161 34.636C66.1441 34.244 65.7641 33.952 65.2761 33.76C64.7961 33.56 64.2361 33.46 63.5961 33.46C62.9641 33.46 62.4001 33.56 61.9041 33.76C61.4081 33.952 61.0201 34.244 60.7401 34.636C60.4601 35.028 60.3201 35.524 60.3201 36.124C60.3201 36.724 60.4601 37.22 60.7401 37.612C61.0201 38.004 61.4081 38.296 61.9041 38.488C62.4001 38.68 62.9641 38.776 63.5961 38.776ZM78.0541 38.416L77.5501 38.62V32.236H79.1461V40H77.5501L71.2741 33.868L71.7781 33.664V40H70.1821V32.236H71.7781L78.0541 38.416ZM80.6025 37.384H82.2225C82.2545 37.656 82.3785 37.904 82.5945 38.128C82.8185 38.344 83.1105 38.516 83.4705 38.644C83.8305 38.764 84.2345 38.824 84.6825 38.824C85.0905 38.824 85.4265 38.78 85.6905 38.692C85.9545 38.604 86.1505 38.48 86.2785 38.32C86.4065 38.16 86.4705 37.968 86.4705 37.744C86.4705 37.528 86.3905 37.364 86.2305 37.252C86.0705 37.132 85.8185 37.036 85.4745 36.964C85.1305 36.884 84.6785 36.804 84.1185 36.724C83.6785 36.66 83.2625 36.572 82.8705 36.46C82.4785 36.34 82.1305 36.188 81.8265 36.004C81.5305 35.82 81.2945 35.596 81.1185 35.332C80.9505 35.06 80.8665 34.74 80.8665 34.372C80.8665 33.916 80.9945 33.516 81.2505 33.172C81.5145 32.828 81.9025 32.56 82.4145 32.368C82.9265 32.176 83.5545 32.08 84.2985 32.08C85.4185 32.08 86.2785 32.32 86.8785 32.8C87.4865 33.272 87.7825 33.924 87.7665 34.756H86.2065C86.1745 34.284 85.9745 33.944 85.6065 33.736C85.2465 33.528 84.7905 33.424 84.2385 33.424C83.7265 33.424 83.3025 33.5 82.9665 33.652C82.6385 33.804 82.4745 34.064 82.4745 34.432C82.4745 34.576 82.5145 34.704 82.5945 34.816C82.6745 34.92 82.8105 35.012 83.0025 35.092C83.1945 35.172 83.4545 35.248 83.7825 35.32C84.1105 35.392 84.5185 35.464 85.0065 35.536C85.4625 35.6 85.8745 35.688 86.2425 35.8C86.6185 35.904 86.9385 36.044 87.2025 36.22C87.4745 36.388 87.6825 36.604 87.8265 36.868C87.9705 37.132 88.0425 37.456 88.0425 37.84C88.0425 38.312 87.9185 38.724 87.6705 39.076C87.4305 39.42 87.0545 39.688 86.5425 39.88C86.0385 40.072 85.3825 40.168 84.5745 40.168C83.9985 40.168 83.4905 40.108 83.0505 39.988C82.6105 39.86 82.2305 39.692 81.9105 39.484C81.5905 39.276 81.3305 39.048 81.1305 38.8C80.9305 38.552 80.7865 38.304 80.6985 38.056C80.6185 37.808 80.5865 37.584 80.6025 37.384ZM96.6985 36.568V32.236H98.2945V36.736C98.2945 37.248 98.2185 37.696 98.0665 38.08C97.9225 38.464 97.7145 38.788 97.4425 39.052C97.1705 39.316 96.8505 39.532 96.4825 39.7C96.1225 39.86 95.7265 39.976 95.2945 40.048C94.8705 40.12 94.4225 40.156 93.9505 40.156C93.4625 40.156 92.9985 40.12 92.5585 40.048C92.1185 39.976 91.7145 39.86 91.3465 39.7C90.9865 39.532 90.6745 39.316 90.4105 39.052C90.1465 38.788 89.9385 38.464 89.7865 38.08C89.6425 37.696 89.5705 37.248 89.5705 36.736V32.236H91.1665V36.568C91.1665 37.176 91.2865 37.64 91.5265 37.96C91.7665 38.272 92.0945 38.488 92.5105 38.608C92.9345 38.72 93.4145 38.776 93.9505 38.776C94.4705 38.776 94.9345 38.72 95.3425 38.608C95.7585 38.488 96.0865 38.272 96.3265 37.96C96.5745 37.64 96.6985 37.176 96.6985 36.568ZM101.857 32.236V38.668H107.017V40H100.261V32.236H101.857ZM106.88 32.236H115.064V33.568H106.88V32.236ZM110.18 33.4H111.776V40H110.18V33.4ZM116.573 32.236H118.169V40H116.573V32.236ZM128.227 38.416L127.723 38.62V32.236H129.319V40H127.723L121.447 33.868L121.951 33.664V40H120.355V32.236H121.951L128.227 38.416ZM135.756 40.156C135.036 40.156 134.384 40.072 133.8 39.904C133.224 39.736 132.724 39.484 132.3 39.148C131.884 38.812 131.564 38.396 131.34 37.9C131.116 37.404 131.004 36.832 131.004 36.184C131.004 35.528 131.12 34.948 131.352 34.444C131.592 33.932 131.928 33.5 132.36 33.148C132.8 32.796 133.32 32.532 133.92 32.356C134.528 32.172 135.2 32.08 135.936 32.08C136.808 32.08 137.56 32.204 138.192 32.452C138.824 32.692 139.32 33.032 139.68 33.472C140.048 33.912 140.256 34.436 140.304 35.044H138.768C138.664 34.724 138.492 34.448 138.252 34.216C138.02 33.976 137.712 33.792 137.328 33.664C136.944 33.528 136.48 33.46 135.936 33.46C135.24 33.46 134.644 33.572 134.148 33.796C133.66 34.02 133.288 34.336 133.032 34.744C132.776 35.152 132.648 35.632 132.648 36.184C132.648 36.72 132.76 37.184 132.984 37.576C133.208 37.96 133.552 38.256 134.016 38.464C134.488 38.672 135.088 38.776 135.816 38.776C136.376 38.776 136.868 38.704 137.292 38.56C137.724 38.408 138.084 38.208 138.372 37.96C138.66 37.704 138.864 37.42 138.984 37.108L139.608 36.88C139.504 37.912 139.112 38.716 138.432 39.292C137.76 39.868 136.868 40.156 135.756 40.156ZM139.2 40C139.2 39.752 139.216 39.468 139.248 39.148C139.28 38.82 139.32 38.492 139.368 38.164C139.416 37.828 139.46 37.52 139.5 37.24H135.948V36.22H140.58V40H139.2ZM146.607 38.308V36.976H151.743V38.308H146.607ZM144.675 40L148.323 32.236H150.051L153.735 40H151.995L148.803 33.004H149.571L146.403 40H144.675ZM159.061 40.156C158.341 40.156 157.689 40.072 157.105 39.904C156.529 39.736 156.029 39.484 155.605 39.148C155.189 38.812 154.869 38.396 154.645 37.9C154.421 37.404 154.309 36.832 154.309 36.184C154.309 35.528 154.425 34.948 154.657 34.444C154.897 33.932 155.233 33.5 155.665 33.148C156.105 32.796 156.625 32.532 157.225 32.356C157.833 32.172 158.505 32.08 159.241 32.08C160.113 32.08 160.865 32.204 161.497 32.452C162.129 32.692 162.625 33.032 162.985 33.472C163.353 33.912 163.561 34.436 163.609 35.044H162.073C161.969 34.724 161.797 34.448 161.557 34.216C161.325 33.976 161.017 33.792 160.633 33.664C160.249 33.528 159.785 33.46 159.241 33.46C158.545 33.46 157.949 33.572 157.453 33.796C156.965 34.02 156.593 34.336 156.337 34.744C156.081 35.152 155.953 35.632 155.953 36.184C155.953 36.72 156.065 37.184 156.289 37.576C156.513 37.96 156.857 38.256 157.321 38.464C157.793 38.672 158.393 38.776 159.121 38.776C159.681 38.776 160.173 38.704 160.597 38.56C161.029 38.408 161.389 38.208 161.677 37.96C161.965 37.704 162.169 37.42 162.289 37.108L162.913 36.88C162.809 37.912 162.417 38.716 161.737 39.292C161.065 39.868 160.173 40.156 159.061 40.156ZM162.505 40C162.505 39.752 162.521 39.468 162.553 39.148C162.585 38.82 162.625 38.492 162.673 38.164C162.721 37.828 162.765 37.52 162.805 37.24H159.253V36.22H163.885V40H162.505ZM167.282 36.76V38.668H173.27V40H165.686V32.236H173.258V33.568H167.282V35.5H172.178V36.76H167.282ZM182.9 38.416L182.396 38.62V32.236H183.992V40H182.396L176.12 33.868L176.624 33.664V40H175.028V32.236H176.624L182.9 38.416ZM195.025 37.204C194.953 37.828 194.733 38.36 194.365 38.8C193.997 39.24 193.497 39.576 192.865 39.808C192.233 40.04 191.481 40.156 190.609 40.156C189.881 40.156 189.213 40.072 188.605 39.904C188.005 39.736 187.485 39.484 187.045 39.148C186.613 38.812 186.277 38.396 186.037 37.9C185.797 37.396 185.677 36.808 185.677 36.136C185.677 35.464 185.797 34.876 186.037 34.372C186.277 33.868 186.613 33.448 187.045 33.112C187.485 32.768 188.005 32.512 188.605 32.344C189.213 32.168 189.881 32.08 190.609 32.08C191.481 32.08 192.233 32.2 192.865 32.44C193.505 32.68 194.009 33.024 194.377 33.472C194.745 33.912 194.961 34.448 195.025 35.08H193.441C193.337 34.744 193.161 34.456 192.913 34.216C192.673 33.968 192.361 33.78 191.977 33.652C191.593 33.524 191.137 33.46 190.609 33.46C189.953 33.46 189.377 33.564 188.881 33.772C188.385 33.972 188.001 34.272 187.729 34.672C187.457 35.064 187.321 35.552 187.321 36.136C187.321 36.712 187.457 37.196 187.729 37.588C188.001 37.98 188.385 38.28 188.881 38.488C189.377 38.688 189.953 38.788 190.609 38.788C191.137 38.788 191.589 38.724 191.965 38.596C192.349 38.468 192.661 38.284 192.901 38.044C193.149 37.804 193.329 37.524 193.441 37.204H195.025ZM203.844 32.236L200.436 37.552V40H198.828V37.552L195.42 32.236H197.268L200.136 36.88H199.176L201.996 32.236H203.844Z" fill="white" fill-opacity="0.55"/>
<defs>
<clipPath id="clip0_2090_2591">
<rect width="35.3149" height="38.9935" fill="white" transform="translate(0 2.00323)"/>
</clipPath>
</defs>
</svg>
