<svg width="41" height="40" viewBox="0 0 41 40" fill="none" xmlns="http://www.w3.org/2000/svg">
<g clip-path="url(#clip0_555_3630)">
<mask id="mask0_555_3630" style="mask-type:luminance" maskUnits="userSpaceOnUse" x="0" y="0" width="41" height="40">
<path d="M40.5 0H0.5V40H40.5V0Z" fill="white"/>
</mask>
<g mask="url(#mask0_555_3630)">
<path opacity="0.4" d="M35.1338 23.635V28.535C35.1338 30.3683 33.6338 31.8683 31.8005 31.8683H9.20052C7.36719 31.8683 5.86719 30.3683 5.86719 28.535V23.635C5.86719 15.6016 12.3672 9.10159 20.4005 9.10159H20.6005C28.6338 9.08493 35.1338 15.6016 35.1338 23.635Z" fill="#6A52E0"/>
<path d="M21.75 4.21533V9.14867C21.3667 9.11533 20.9833 9.09867 20.6 9.09867H20.4C20.0167 9.09867 19.6333 9.11533 19.25 9.14867V4.21533C19.25 3.532 19.8167 2.96533 20.5 2.96533C21.1833 2.96533 21.75 3.532 21.75 4.21533Z" fill="#6A52E0"/>
<path d="M26.034 31.8486C25.834 34.7486 23.434 37.032 20.5007 37.032C17.5673 37.032 15.1506 34.7486 14.9673 31.8486H26.034Z" fill="#6A52E0"/>
</g>
</g>
<defs>
<clipPath id="clip0_555_3630">
<rect width="40" height="40" fill="white" transform="translate(0.5)"/>
</clipPath>
</defs>
</svg>
