<svg width="41" height="40" viewBox="0 0 41 40" fill="none" xmlns="http://www.w3.org/2000/svg">
<mask id="mask0_4025_3172" style="mask-type:luminance" maskUnits="userSpaceOnUse" x="0" y="0" width="41" height="40">
<path d="M40.5 0H0.5V40H40.5V0Z" fill="white"/>
</mask>
<g mask="url(#mask0_4025_3172)">
<path d="M17.1003 23.4008V21.5508C17.1003 20.8342 16.5669 20.4842 15.9169 20.7675L7.56693 24.3675C6.25026 24.9342 5.18359 24.2342 5.18359 22.8175V20.6175C5.18359 19.4842 6.03359 18.1675 7.08359 17.7342L16.5836 13.6509C16.8503 13.5176 17.0836 13.1676 17.0836 12.8676V7.76758C17.0836 6.16758 18.267 4.25091 19.6837 3.51758C20.1837 3.26758 20.7837 3.26758 21.2837 3.51758C22.717 4.25091 23.9003 6.15091 23.9003 7.75091V12.8509C23.9003 13.1509 24.1337 13.5009 24.4003 13.6342L26.1337 14.3676L17.1003 23.4008Z" fill="#6A52E0"/>
<path opacity="0.4" d="M35.8173 20.6152V22.8152C35.8173 24.2318 34.7507 24.9318 33.434 24.3652L25.084 20.7652C24.4173 20.4985 23.9007 20.8318 23.9007 21.5485V26.3985C23.9007 26.7818 24.1173 27.3318 24.4007 27.5985L28.2673 31.4818C28.6673 31.8818 28.8507 32.6818 28.6673 33.2318L27.9173 35.4985C27.584 36.4818 26.4673 36.9318 25.5507 36.4818L21.584 33.1485C20.984 32.6318 20.0007 32.6318 19.4007 33.1485L15.4339 36.4818C14.5173 36.9485 13.4006 36.4818 13.1006 35.4985L12.3506 33.2318C12.1673 32.6652 12.3506 31.8818 12.7506 31.4818L16.6173 27.5985C16.8839 27.3318 17.1006 26.7818 17.1006 26.3985V23.3985L26.134 14.3652L33.9173 17.7152C34.9673 18.1652 35.8173 19.4818 35.8173 20.6152Z" fill="#6A52E0"/>
</g>
</svg>
